<svg width="32" height="36" viewBox="0 0 32 36" fill="none">
<path d="M3.20508 10.3882L16.0003 17.4468L28.7955 10.3882C28.7481 9.48862 28.3908 8.64301 27.7968 8.02462C27.2028 7.40623 26.4169 7.06185 25.6003 7.06201H6.40028C5.58361 7.06185 4.79779 7.40623 4.20376 8.02462C3.60973 8.64301 3.25244 9.48862 3.20508 10.3882Z" fill="#29AAE3"/>
<path d="M28.8002 14.3325L16.0002 21.3946L3.2002 14.3325V24.7173C3.2002 25.6538 3.53734 26.5519 4.13745 27.2141C4.73757 27.8763 5.5515 28.2483 6.4002 28.2483H25.6002C26.4489 28.2483 27.2628 27.8763 27.8629 27.2141C28.4631 26.5519 28.8002 25.6538 28.8002 24.7173V14.3325Z" fill="#29AAE3"/>
</svg>
