<svg width="26" height="27" viewBox="0 0 26 27" fill="none" xmlns="http://www.w3.org/2000/svg">
<path d="M23.9107 0H1.83354C0.821931 0 0 0.87346 0 1.94571V25.0412C0 26.1134 0.821931 26.9869 1.83354 26.9869H23.9107C24.9223 26.9869 25.75 26.1134 25.75 25.0412V1.94571C25.75 0.87346 24.9223 0 23.9107 0ZM7.78248 23.1316H3.96596V10.2526H7.78823V23.1316H7.78248ZM5.87422 8.49365C4.64994 8.49365 3.66133 7.45152 3.66133 6.17446C3.66133 4.8974 4.64994 3.85527 5.87422 3.85527C7.09275 3.85527 8.08711 4.8974 8.08711 6.17446C8.08711 7.45754 7.09849 8.49365 5.87422 8.49365ZM22.0887 23.1316H18.2722V16.8668C18.2722 15.3729 18.2434 13.4513 16.2892 13.4513C14.3004 13.4513 13.9958 15.0777 13.9958 16.7584V23.1316H10.1793V10.2526H13.8406V12.0116H13.8924C14.4039 10.9996 15.6512 9.93335 17.5077 9.93335C21.3702 9.93335 22.0887 12.6019 22.0887 16.0717V23.1316Z" fill="#FFF9F9"/>
</svg>
