<svg width="32" height="35" viewBox="0 0 32 35" fill="none" xmlns="http://www.w3.org/2000/svg">
<path d="M29.5818 1.10282L0.811304 14.3524C-0.131888 14.7868 -0.288333 16.1767 0.530415 16.8483L5.86623 21.2253L30.035 1.84006C30.3561 1.48876 30.0004 0.910023 29.5818 1.10282Z" fill="white"/>
<path d="M31.3401 2.97546L31.086 3.17922L11.5146 24.5855L21.5513 31.9038C22.2785 32.4341 23.2676 32.0629 23.544 31.156L31.9774 3.48361C32.105 3.06503 31.6654 2.71455 31.3401 2.97546Z" fill="white"/>
<path d="M7.74902 33.935L13.9465 28.4734L10.6306 26.0557L7.74902 33.935Z" fill="white"/>
<path d="M9.68263 24.1005L9.68295 24.1001L20.7183 12.0302C20.8917 11.8406 20.6583 11.5431 20.4606 11.7016L6.66504 22.7667V32.1606L9.50485 24.3956C9.54666 24.2814 9.60796 24.1823 9.68263 24.1005Z" fill="white"/>
</svg>
