<svg width="28" height="23" viewBox="0 0 28 23" fill="none" xmlns="http://www.w3.org/2000/svg">
<path d="M18.6667 4.6C18.6667 5.82 18.175 6.99002 17.2998 7.85269C16.4247 8.71536 15.2377 9.2 14 9.2C12.7623 9.2 11.5753 8.71536 10.7002 7.85269C9.825 6.99002 9.33333 5.82 9.33333 4.6C9.33333 3.38 9.825 2.20998 10.7002 1.34731C11.5753 0.484642 12.7623 0 14 0C15.2377 0 16.4247 0.484642 17.2998 1.34731C18.175 2.20998 18.6667 3.38 18.6667 4.6ZM26.4444 7.66667C26.4444 8.48 26.1167 9.26002 25.5332 9.83513C24.9498 10.4102 24.1585 10.7333 23.3333 10.7333C22.5082 10.7333 21.7169 10.4102 21.1334 9.83513C20.55 9.26002 20.2222 8.48 20.2222 7.66667C20.2222 6.85334 20.55 6.07332 21.1334 5.49821C21.7169 4.92309 22.5082 4.6 23.3333 4.6C24.1585 4.6 24.9498 4.92309 25.5332 5.49821C26.1167 6.07332 26.4444 6.85334 26.4444 7.66667ZM20.2222 18.4C20.2222 16.7733 19.5667 15.2133 18.3998 14.0631C17.2329 12.9129 15.6502 12.2667 14 12.2667C12.3498 12.2667 10.7671 12.9129 9.60023 14.0631C8.43333 15.2133 7.77778 16.7733 7.77778 18.4V23H20.2222V18.4ZM7.77778 7.66667C7.77778 8.48 7.45 9.26002 6.86656 9.83513C6.28311 10.4102 5.49179 10.7333 4.66667 10.7333C3.84155 10.7333 3.05023 10.4102 2.46678 9.83513C1.88333 9.26002 1.55556 8.48 1.55556 7.66667C1.55556 6.85334 1.88333 6.07332 2.46678 5.49821C3.05023 4.92309 3.84155 4.6 4.66667 4.6C5.49179 4.6 6.28311 4.92309 6.86656 5.49821C7.45 6.07332 7.77778 6.85334 7.77778 7.66667ZM23.3333 23V18.4C23.3356 16.841 22.934 15.3073 22.1667 13.9441C22.8563 13.7702 23.5772 13.7538 24.2742 13.8962C24.9713 14.0386 25.6261 14.336 26.1888 14.7659C26.7515 15.1957 27.2072 15.7465 27.5211 16.3763C27.835 17.0061 27.9988 17.6983 28 18.4V23H23.3333ZM5.83333 13.9441C5.06605 15.3073 4.66449 16.841 4.66667 18.4V23H4.13342e-07V18.4C-0.000299395 17.6978 0.162499 17.0048 0.475918 16.3742C0.789337 15.7437 1.24506 15.1922 1.80815 14.762C2.37125 14.3319 3.02677 14.0346 3.72448 13.8928C4.42219 13.751 5.14357 13.7686 5.83333 13.9441Z" fill="white"/>
</svg>
