<svg width="26" height="23" viewBox="0 0 26 23" fill="none" xmlns="http://www.w3.org/2000/svg">
<path d="M23.1657 6.20854C23.182 6.44826 23.182 6.68803 23.182 6.92775C23.182 14.2395 17.8719 22.6644 8.16659 22.6644C5.17656 22.6644 2.39897 21.7568 0.0625 20.1815C0.487326 20.2329 0.895757 20.25 1.33693 20.25C3.80406 20.25 6.0752 19.3767 7.88882 17.887C5.5687 17.8356 3.62436 16.2431 2.95446 14.0512C3.28126 14.1026 3.60802 14.1368 3.95117 14.1368C4.42498 14.1368 4.89884 14.0683 5.33996 13.9485C2.92182 13.4347 1.10815 11.2087 1.10815 8.52025V8.45178C1.81069 8.86275 2.6277 9.1196 3.4936 9.15381C2.07211 8.16061 1.14084 6.46539 1.14084 4.54752C1.14084 3.52012 1.40221 2.57831 1.85973 1.75637C4.45762 5.11261 8.36263 7.30441 12.7414 7.54418C12.6597 7.13321 12.6107 6.70516 12.6107 6.27706C12.6107 3.229 14.9635 0.746094 17.8882 0.746094C19.4077 0.746094 20.7801 1.41392 21.7441 2.49271C22.9368 2.25299 24.0806 1.79063 25.0936 1.15707C24.7014 2.44137 23.8682 3.52017 22.7735 4.20507C23.8355 4.08526 24.8649 3.77697 25.8125 3.34892C25.0937 4.44479 24.195 5.4208 23.1657 6.20854Z" fill="#FFFEFE"/>
</svg>
