<svg width="58" height="58" viewBox="0 0 58 58" fill="none" xmlns="http://www.w3.org/2000/svg">
<g clip-path="url(#clip0_237_449)">
<path d="M34.2051 34.1957C34.291 34.1954 34.377 34.1952 34.4655 34.1949C34.751 34.1942 35.0364 34.1943 35.3219 34.1944C35.5276 34.1941 35.7333 34.1937 35.939 34.1932C36.496 34.1922 37.0531 34.192 37.6101 34.1919C37.9586 34.1918 38.3071 34.1916 38.6556 34.1913C39.8726 34.1902 41.0897 34.1898 42.3067 34.1899C43.4391 34.1899 44.5715 34.1887 45.7039 34.1869C46.6779 34.1855 47.6519 34.1848 48.6259 34.1849C49.2068 34.185 49.7878 34.1846 50.3687 34.1834C50.9153 34.1823 51.462 34.1823 52.0086 34.1831C52.2085 34.1833 52.4084 34.183 52.6082 34.1823C55.7249 34.1723 55.7249 34.1723 56.9596 35.306C57.6776 36.0925 58.0131 36.9353 58.0158 37.9923C58.0164 38.1411 58.0171 38.2899 58.0178 38.4432C58.0179 38.6079 58.018 38.7726 58.0181 38.9373C58.0187 39.111 58.0192 39.2846 58.0199 39.4582C58.0213 39.9299 58.0221 40.4015 58.0226 40.8731C58.0229 41.168 58.0234 41.4629 58.0239 41.7578C58.0254 42.6811 58.0265 43.6044 58.027 44.5277C58.0275 45.5923 58.0295 46.6569 58.0327 47.7214C58.0352 48.545 58.0363 49.3687 58.0365 50.1923C58.0366 50.6838 58.0373 51.1754 58.0393 51.6669C58.0412 52.1297 58.0414 52.5924 58.0404 53.0552C58.0403 53.2245 58.0408 53.3938 58.0419 53.563C58.0508 54.9878 57.8913 56.0438 56.8671 57.0937C56.0458 57.7621 55.296 58.0346 54.2336 58.0302C54.0952 58.031 54.0952 58.031 53.9539 58.0318C53.6456 58.0332 53.3373 58.033 53.0289 58.0328C52.8074 58.0335 52.586 58.0343 52.3645 58.0351C51.7634 58.0371 51.1624 58.0377 50.5613 58.0378C50.1855 58.038 49.8098 58.0384 49.434 58.039C48.1223 58.0411 46.8107 58.0421 45.499 58.0419C44.2776 58.0418 43.0561 58.0441 41.8347 58.0477C40.7851 58.0507 39.7355 58.0519 38.6858 58.0518C38.0594 58.0517 37.4329 58.0523 36.8065 58.0547C36.2169 58.0569 35.6275 58.0569 35.038 58.0553C34.8222 58.0551 34.6063 58.0556 34.3905 58.057C32.8816 58.0659 31.7326 57.9842 30.5836 56.9003C29.9712 56.1912 29.6663 55.3782 29.6629 54.4508C29.6625 54.3778 29.6621 54.3048 29.6616 54.2295C29.6604 53.9843 29.66 53.7391 29.6595 53.4939C29.6588 53.3182 29.6581 53.1425 29.6573 52.9669C29.6549 52.3894 29.6537 51.8119 29.6526 51.2345C29.6521 51.0355 29.6517 50.8365 29.6512 50.6375C29.649 49.7023 29.6474 48.7671 29.6465 47.8319C29.6454 46.7536 29.6424 45.6753 29.6378 44.597C29.6344 43.7629 29.6327 42.9288 29.6323 42.0947C29.6321 41.5968 29.6311 41.0991 29.6282 40.6012C29.6256 40.1323 29.6251 39.6635 29.6263 39.1945C29.6263 39.0231 29.6256 38.8517 29.624 38.6803C29.6123 37.3125 29.7994 36.2532 30.7664 35.2357C31.7945 34.3611 32.9012 34.1928 34.2051 34.1957ZM34.7772 40.8944C34.6749 41.2014 34.6487 41.3848 34.6457 41.7006C34.6446 41.794 34.6435 41.8874 34.6424 41.9837C34.6419 42.0842 34.6414 42.1847 34.6409 42.2883C34.6403 42.3921 34.6397 42.4959 34.639 42.6028C34.6379 42.8224 34.6372 43.042 34.6367 43.2616C34.6356 43.597 34.6321 43.9323 34.6286 44.2677C34.6278 44.4811 34.6272 44.6945 34.6268 44.908C34.6254 45.008 34.624 45.1081 34.6225 45.2112C34.6245 45.7526 34.6455 46.1228 35.0038 46.5585C35.3276 46.821 35.3276 46.821 35.7189 46.778C36.2371 46.6462 36.4247 46.4622 36.8163 46.1054C37.348 45.7757 37.9099 45.8226 38.5155 45.8788C39.1341 46.0925 39.439 46.4367 39.7709 46.9891C40.0116 47.5656 39.9863 48.2892 39.7758 48.8719C39.4749 49.3984 39.1014 49.7753 38.5155 49.9569C37.7351 50.0794 37.1306 49.9389 36.4765 49.5038C36.3783 49.4197 36.2802 49.3356 36.1791 49.2489C35.9179 49.0249 35.9179 49.0249 35.5631 48.994C35.1496 49.0644 35.0228 49.1673 34.7772 49.5038C34.6435 49.8514 34.6354 50.0007 34.7772 50.3463C35.4716 51.2359 36.3999 51.7791 37.5274 51.9336C38.6867 51.9736 39.5947 51.7064 40.4838 50.9552C41.3573 50.1122 41.8282 49.1247 41.8502 47.9037C41.8361 46.8003 41.5068 45.9177 40.7811 45.0858C39.5739 43.9655 38.2738 43.874 36.703 43.8398C36.569 43.5717 36.5746 43.4016 36.5756 43.1034C36.5753 43.0135 36.575 42.9235 36.5747 42.8308C36.5897 42.5937 36.5897 42.5937 36.703 42.3671C36.8339 42.3654 36.9648 42.3638 37.0996 42.3621C37.5862 42.3555 38.0729 42.3468 38.5595 42.3374C38.7699 42.3336 38.9803 42.3304 39.1907 42.3278C39.4936 42.324 39.7964 42.3181 40.0992 42.3118C40.193 42.3111 40.2867 42.3103 40.3832 42.3096C40.908 42.2963 41.2611 42.2537 41.6874 41.914C41.851 41.5867 41.8434 41.3706 41.8007 41.0077C41.6065 40.6794 41.6065 40.6794 41.2343 40.4413C40.7836 40.3572 40.3389 40.3647 39.8815 40.3701C39.7501 40.3698 39.6188 40.3695 39.4834 40.3692C39.206 40.3694 38.9286 40.3709 38.6513 40.3737C38.2263 40.3776 37.8017 40.376 37.3767 40.3738C37.1072 40.3746 36.8376 40.3757 36.5681 40.3772C36.4408 40.3766 36.3136 40.376 36.1826 40.3754C36.0642 40.3772 35.9459 40.379 35.824 40.3809C35.72 40.3816 35.6161 40.3823 35.509 40.383C35.1432 40.4595 35.0088 40.6069 34.7772 40.8944ZM45.7288 41.8989C45.1988 42.5735 44.8512 43.4477 44.8392 44.3082C44.8378 44.3994 44.8363 44.4906 44.8348 44.5845C44.834 44.6824 44.8331 44.7802 44.8323 44.881C44.8314 44.983 44.8304 45.085 44.8295 45.1901C44.8279 45.4061 44.8267 45.6222 44.8258 45.8382C44.8245 46.0574 44.8222 46.2766 44.8189 46.4957C44.7917 48.2664 44.9084 49.6024 46.1722 50.9406C46.9654 51.689 48.0546 52.0387 49.137 52.0203C50.2646 51.9121 51.2595 51.3761 51.996 50.5233C52.7814 49.4676 52.9433 48.6417 52.9447 47.3373C52.9489 47.1369 52.9489 47.1369 52.9531 46.9324C52.9536 46.8041 52.954 46.6757 52.9545 46.5435C52.9554 46.4268 52.9563 46.3101 52.9573 46.1898C52.8875 45.7955 52.7643 45.6663 52.4491 45.4257C51.9831 45.2533 51.4817 45.2873 50.9906 45.2841C50.9011 45.2818 50.8116 45.2794 50.7194 45.277C50.1528 45.2732 49.769 45.3397 49.2772 45.6523C49.0708 45.9215 49.0479 46.0502 49.0648 46.3886C49.1857 46.7339 49.3363 46.8937 49.6171 47.1249C49.9586 47.2388 50.1882 47.2499 50.5446 47.2453C50.6466 47.2442 50.7487 47.2432 50.8539 47.2422C50.9317 47.2409 51.0095 47.2395 51.0897 47.2382C51.0112 48.9109 51.0112 48.9109 50.318 49.5888C49.6768 50.0414 49.1887 50.1176 48.4236 50.0176C47.83 49.8887 47.4602 49.644 47.0824 49.1569C46.7729 48.5974 46.7636 48.1165 46.7581 47.4917C46.7571 47.3938 46.7562 47.2959 46.7553 47.1949C46.7537 46.9875 46.7525 46.78 46.7516 46.5725C46.7503 46.3612 46.748 46.1499 46.7446 45.9387C46.7398 45.6327 46.738 45.3268 46.7368 45.0208C46.7348 44.9274 46.7329 44.8341 46.7308 44.7379C46.7332 44.0839 46.874 43.5943 47.2382 43.0468C47.7245 42.5729 48.1851 42.3593 48.8595 42.3246C49.4254 42.3433 49.8449 42.4751 50.2968 42.8202C50.4729 43.015 50.645 43.2136 50.8136 43.4149C51.1925 43.8694 51.1925 43.8694 51.7482 44.0522C52.1577 43.9397 52.315 43.8425 52.5624 43.4999C52.658 43.2398 52.6916 43.0999 52.6115 42.8322C52.0468 41.7448 51.3341 41.0386 50.1795 40.5754C48.5115 40.0856 46.9127 40.6862 45.7288 41.8989Z" fill="#29AAE3"/>
<path d="M13.4946 45.4934C13.6431 45.4926 13.7917 45.4918 13.9447 45.491C14.3503 45.489 14.7559 45.4891 15.1615 45.4898C15.5005 45.4901 15.8394 45.4894 16.1784 45.4888C16.9778 45.4872 17.7773 45.4873 18.5767 45.4886C19.4012 45.4899 20.2257 45.4883 21.0502 45.4853C21.7589 45.4828 22.4675 45.482 23.1762 45.4827C23.5991 45.4831 24.0221 45.4828 24.445 45.4809C24.9161 45.4788 25.3871 45.4804 25.8582 45.4823C25.9983 45.4812 26.1384 45.4801 26.2828 45.479C26.4109 45.4801 26.5391 45.4812 26.6711 45.4824C26.8381 45.4824 26.8381 45.4824 27.0085 45.4825C27.3826 45.555 27.5163 45.7013 27.754 45.9923C27.9229 46.3997 27.8837 46.8496 27.8833 47.2846C27.8837 47.3685 27.8841 47.4524 27.8845 47.5388C27.8854 47.7207 27.886 47.9027 27.8864 48.0847C27.8872 48.374 27.889 48.6632 27.8911 48.9525C27.897 49.775 27.9024 50.5975 27.9042 51.42C27.9053 51.9237 27.9087 52.4273 27.9134 52.931C27.9148 53.1217 27.9154 53.3124 27.9151 53.5031C27.9141 54.5481 27.9634 55.4454 28.3368 56.4379C28.4883 56.9322 28.503 57.295 28.2708 57.7594C27.9034 58.0641 27.6765 58.0674 27.2124 58.0753C26.8319 57.9614 26.7207 57.7644 26.5079 57.4337C26.4641 57.1247 26.4446 56.8601 26.4468 56.5518C26.4455 56.4682 26.4442 56.3845 26.4428 56.2984C26.4388 56.0325 26.4378 55.7667 26.4371 55.5008C26.4352 55.2345 26.4327 54.9683 26.429 54.702C26.4268 54.5368 26.4257 54.3715 26.4259 54.2062C26.4216 53.7938 26.4086 53.4729 26.1681 53.129C25.8226 52.9563 25.5289 52.989 25.1485 53.0157C24.9388 53.1242 24.9388 53.1242 24.8087 53.3556C24.7752 53.6574 24.7614 53.9342 24.7627 54.2361C24.7608 54.3654 24.7608 54.3654 24.7589 54.4973C24.7551 54.7728 24.7533 55.0483 24.752 55.3238C24.7504 55.6858 24.7466 56.0477 24.7414 56.4097C24.7418 56.4925 24.7421 56.5752 24.7425 56.6604C24.7351 57.1634 24.6661 57.4869 24.3556 57.8868C24.0821 58.0235 23.9064 58.0159 23.6009 58.0183C23.4364 58.02 23.4364 58.02 23.2686 58.0216C23.0904 58.0224 23.0904 58.0224 22.9086 58.0231C22.7868 58.0237 22.6649 58.0244 22.5394 58.0251C22.2814 58.0261 22.0233 58.0269 21.7652 58.0273C21.3702 58.0284 20.9752 58.0319 20.5801 58.0355C20.3296 58.0362 20.0792 58.0368 19.8287 58.0373C19.7104 58.0387 19.592 58.0401 19.47 58.0415C19.3045 58.041 19.3045 58.041 19.1356 58.0405C18.9902 58.0411 18.9902 58.0411 18.8419 58.0417C18.5161 57.9903 18.3629 57.8859 18.1251 57.6602C17.9872 57.2467 17.9922 56.8626 17.9879 56.4319C17.9847 56.2538 17.9815 56.0758 17.9782 55.8978C17.9735 55.6173 17.9693 55.3369 17.9663 55.0565C17.9632 54.7857 17.958 54.5149 17.9525 54.2441C17.9521 54.1602 17.9518 54.0763 17.9514 53.9899C17.9405 53.5355 17.9405 53.5355 17.75 53.1323C17.4273 52.9356 17.1321 52.983 16.7657 53.0157C16.3977 53.2108 16.3977 53.2108 16.3126 53.5821C16.3006 53.8682 16.2943 54.1518 16.2927 54.4379C16.29 54.6098 16.2873 54.7816 16.2845 54.9534C16.2805 55.2237 16.2772 55.4938 16.2757 55.7641C16.2739 56.0254 16.2694 56.2865 16.2644 56.5478C16.2646 56.6281 16.2648 56.7083 16.265 56.791C16.2559 57.1598 16.2 57.4323 16.0448 57.7676C15.5739 58.1343 15.1093 58.0811 14.5284 58.0753C14.3499 58.0761 14.3499 58.0761 14.1679 58.077C13.9165 58.0773 13.6651 58.0763 13.4137 58.0739C13.0288 58.0709 12.6442 58.0739 12.2592 58.0775C12.015 58.0772 11.7707 58.0764 11.5265 58.0753C11.4113 58.0765 11.2961 58.0776 11.1774 58.0788C11.0701 58.077 10.9627 58.0752 10.8521 58.0734C10.7579 58.0729 10.6636 58.0725 10.5666 58.072C10.1714 57.9618 10.0598 57.7846 9.85556 57.4337C9.81111 57.1056 9.79235 56.8207 9.79513 56.4931C9.79415 56.3998 9.79318 56.3065 9.79217 56.2104C9.7896 55.9026 9.79037 55.5949 9.7914 55.2871C9.7908 55.0722 9.79009 54.8573 9.78927 54.6424C9.78809 54.1919 9.78861 53.7414 9.79026 53.2909C9.7922 52.7158 9.78955 52.1409 9.78556 51.5659C9.78306 51.1218 9.78324 50.6778 9.78418 50.2337C9.78427 50.0219 9.7835 49.81 9.78182 49.5982C9.76619 47.2634 9.76619 47.2634 10.6208 46.345C11.479 45.5231 12.3568 45.4892 13.4946 45.4934Z" fill="#29AAE3"/>
<path d="M15.3719 34.269C15.8703 34.3018 16.293 34.4484 16.7511 34.6389C16.8353 34.6724 16.9194 34.706 17.0061 34.7405C17.283 34.8513 17.5589 34.9642 17.8348 35.0773C18.0301 35.156 18.2255 35.2345 18.4209 35.3129C18.936 35.5201 19.4502 35.7291 19.9643 35.9385C20.4776 36.1472 20.9918 36.354 21.5058 36.561C22.5619 36.9867 23.6165 37.4159 24.6705 37.8465C24.9094 37.944 25.1485 38.0412 25.3875 38.1382C25.7803 38.2976 26.1725 38.4582 26.5646 38.6191C26.6755 38.664 26.7864 38.7089 26.9006 38.7551C26.9988 38.7957 27.097 38.8364 27.1982 38.8782C27.282 38.9125 27.3657 38.9468 27.452 38.9821C27.6407 39.0819 27.6407 39.0819 27.754 39.3085C27.8248 39.6696 27.8248 39.6696 27.754 40.1015C27.5736 40.2832 27.5736 40.2832 27.3279 40.4648C27.2352 40.5334 27.1425 40.6021 27.047 40.6729C26.4786 41.0758 25.9038 41.4686 25.3255 41.8573C25.0826 42.0213 24.8396 42.1853 24.5967 42.3494C24.4802 42.4279 24.3637 42.5065 24.2437 42.5875C23.8249 42.8731 23.412 43.1664 23.0006 43.4625C22.5521 43.7551 22.1641 43.7419 21.6411 43.7447C21.5214 43.7456 21.5214 43.7456 21.3993 43.7464C21.1354 43.7481 20.8715 43.7488 20.6076 43.7495C20.424 43.7501 20.2404 43.7508 20.0569 43.7514C19.672 43.7526 19.2871 43.7533 18.9021 43.7537C18.4093 43.7543 17.9166 43.757 17.4238 43.7602C17.0446 43.7624 16.6654 43.7629 16.2862 43.7631C16.1045 43.7635 15.9229 43.7644 15.7412 43.7659C15.4869 43.7678 15.2326 43.7676 14.9783 43.7668C14.8337 43.7673 14.689 43.7677 14.54 43.7681C14.1319 43.7233 13.9186 43.6331 13.5939 43.3866C13.1807 42.5603 13.6841 40.9666 13.816 40.0767C13.8377 39.9292 13.8593 39.7818 13.8816 39.6299C13.9272 39.321 13.9731 39.0122 14.0193 38.7035C14.0783 38.3089 14.1356 37.9142 14.1925 37.5193C14.2476 37.1397 14.3045 36.7603 14.3612 36.3809C14.3914 36.1692 14.3914 36.1692 14.4223 35.9532C14.4424 35.8219 14.4624 35.6906 14.483 35.5554C14.5 35.4403 14.517 35.3253 14.5346 35.2068C14.7478 34.3511 14.7478 34.3511 15.3719 34.269Z" fill="#29AAE3"/>
<path d="M22.8121 -0.0422668C22.9431 -0.0505904 22.9431 -0.0505904 23.0767 -0.059082C23.336 0.000213627 23.336 0.000213627 23.576 0.221715C23.869 0.695924 23.8467 1.06692 23.8334 1.61314C23.8328 1.71292 23.8321 1.81269 23.8315 1.91549C23.8289 2.23294 23.8232 2.55024 23.8175 2.86765C23.8152 3.08336 23.8131 3.29909 23.8113 3.51481C23.8063 4.04255 23.7985 4.57019 23.7891 5.09787C23.9285 5.09393 24.0678 5.08998 24.2113 5.08592C24.3963 5.08273 24.5812 5.07964 24.7662 5.07663C24.8578 5.07378 24.9493 5.07093 25.0436 5.068C25.613 5.06106 26.0271 5.09671 26.5079 5.43771C26.7754 5.88958 26.8177 6.41794 26.8924 6.93161C26.9055 7.01998 26.9185 7.10836 26.932 7.19941C26.9591 7.38558 26.9859 7.57181 27.0122 7.7581C27.053 8.04256 27.0967 8.32647 27.1405 8.61047C27.1665 8.79188 27.1924 8.9733 27.2181 9.15476C27.2315 9.23926 27.245 9.32376 27.2588 9.41083C27.3108 9.80068 27.3171 10.0459 27.1552 10.4085C26.9012 10.7226 26.6053 10.9246 26.2672 11.1372C26.1941 11.1845 26.1211 11.2318 26.0459 11.2805C25.7853 11.4487 25.5235 11.615 25.2618 11.7815C25.0476 11.919 24.8334 12.0566 24.6193 12.1943C24.0171 12.5811 23.4139 12.9662 22.8105 13.351C22.4233 13.5981 22.0364 13.8457 21.6496 14.0936C21.5859 14.1344 21.5222 14.1752 21.4566 14.2173C21.1512 14.4129 20.8459 14.6086 20.5405 14.8043C20.3242 14.9428 20.1076 15.0812 19.891 15.2193C19.7031 15.3392 19.5157 15.4599 19.3289 15.5815C19.209 15.6587 19.209 15.6587 19.0866 15.7375C19.0185 15.7818 18.9503 15.8262 18.8801 15.8719C18.5721 16.0368 18.3495 16.0419 18.0118 15.9729C17.765 15.7831 17.765 15.7831 17.5587 15.5197C17.5304 15.2167 17.5304 15.2167 17.5713 14.8677C17.5858 14.7366 17.6004 14.6055 17.6153 14.4705C17.634 14.3308 17.6527 14.191 17.672 14.0471C17.6899 13.9074 17.7078 13.7676 17.7263 13.6236C17.7881 13.1639 17.8547 12.705 17.9229 12.2461C17.9476 12.0774 17.9723 11.9087 17.9969 11.74C18.0483 11.3894 18.1 11.0389 18.152 10.6884C18.2184 10.241 18.2838 9.79347 18.3489 9.34588C18.3996 8.99868 18.4507 8.65155 18.502 8.30445C18.5263 8.13945 18.5505 7.97443 18.5745 7.80938C18.6081 7.57875 18.6424 7.34824 18.6769 7.11774C18.7058 6.92178 18.7058 6.92178 18.7353 6.72185C18.9584 5.50833 18.9584 5.50833 19.3712 5.21115C19.6845 5.10672 19.8677 5.08452 20.1903 5.08681C20.3266 5.08736 20.3266 5.08736 20.4657 5.08791C20.6073 5.08934 20.6073 5.08934 20.7518 5.09079C20.8954 5.09156 20.8954 5.09156 21.0419 5.09234C21.2779 5.09367 21.514 5.0957 21.7501 5.09787C21.7483 4.967 21.7465 4.83614 21.7447 4.7013C21.7385 4.21468 21.7346 3.72807 21.7314 3.24142C21.7297 3.03101 21.7274 2.82059 21.7244 2.61019C21.7203 2.30733 21.7184 2.00453 21.7169 1.70165C21.7151 1.60793 21.7134 1.51422 21.7116 1.41766C21.7114 0.889307 21.7453 0.542249 22.0899 0.113495C22.349 -0.0160571 22.5236 -0.0298081 22.8121 -0.0422668Z" fill="#29AAE3"/>
<path d="M29.3399 26.2814C29.8792 26.7724 29.9173 27.3451 30.0107 28.032C30.0277 28.1469 30.0447 28.2619 30.0621 28.3803C30.0976 28.6232 30.1322 28.8662 30.166 29.1093C30.2175 29.479 30.2716 29.8483 30.3262 30.2175C30.3605 30.4542 30.3946 30.691 30.4285 30.9277C30.4444 31.0372 30.4603 31.1466 30.4767 31.2593C30.7171 33.0056 30.7171 33.0056 30.447 33.3886C30.2723 33.5642 30.0885 33.7133 29.8922 33.8642C29.2469 34.4079 28.8075 34.9179 28.4337 35.6838C28.3817 35.7888 28.3297 35.8938 28.2761 36.0019C28.1786 36.1995 28.0828 36.398 27.9894 36.5976C27.8672 36.8166 27.8672 36.8166 27.6407 36.9299C26.9494 36.923 26.3416 36.7473 25.7083 36.4868C25.6234 36.453 25.5386 36.4193 25.4511 36.3846C25.1741 36.2741 24.8978 36.1617 24.6215 36.0493C24.4279 35.9715 24.2344 35.8937 24.0408 35.816C23.6368 35.6536 23.2333 35.4903 22.83 35.3263C22.3127 35.1161 21.7946 34.908 21.2762 34.7005C20.8771 34.5406 20.4785 34.3796 20.08 34.2183C19.889 34.1411 19.6979 34.0643 19.5067 33.9877C19.2403 33.8808 18.9745 33.7726 18.7088 33.664C18.59 33.6169 18.59 33.6169 18.4689 33.5688C18.0766 33.4066 17.9138 33.3279 17.6719 32.965C17.6224 32.5756 17.6224 32.5756 17.6719 32.1721C18.1008 31.7584 18.6078 31.5084 19.1349 31.2437C19.2645 31.1776 19.2645 31.1776 19.3967 31.1101C19.6758 30.9679 19.9554 30.8266 20.2349 30.6852C20.5233 30.5385 20.8115 30.3916 21.0997 30.2446C21.2882 30.1485 21.4767 30.0525 21.6652 29.9565C22.3144 29.6261 22.9614 29.2918 23.605 28.9506C23.7643 28.8663 23.9236 28.7819 24.0829 28.6975C24.1617 28.6558 24.2404 28.6141 24.3215 28.5712C24.9672 28.2308 25.6152 27.8946 26.2633 27.5586C26.731 27.3156 27.1974 27.0717 27.6562 26.812C27.8483 26.7036 27.8483 26.7036 28.0443 26.593C28.1495 26.5316 28.2548 26.4703 28.3633 26.4071C28.7257 26.2537 28.9506 26.2166 29.3399 26.2814Z" fill="#29AAE3"/>
<path d="M18.0116 19.824C18.3771 19.9599 18.7157 20.1363 19.0595 20.3196C19.1459 20.3641 19.2324 20.4087 19.3214 20.4546C19.7149 20.6582 20.1062 20.8659 20.4974 21.0739C22.0427 21.895 23.6031 22.6832 25.1696 23.4632C25.4108 23.5835 25.6521 23.7039 25.8933 23.8242C26.4756 24.1148 27.058 24.405 27.6405 24.6951C27.6405 24.7699 27.6405 24.8446 27.6405 24.9217C27.5248 24.9809 27.4091 25.0402 27.2899 25.1013C24.6634 26.4435 24.6634 26.4435 22.0492 27.8094C21.2027 28.2576 20.3527 28.6989 19.5019 29.1388C18.9582 29.4204 18.4163 29.704 17.8802 29.9998C17.7926 30.0478 17.705 30.0958 17.6147 30.1452C17.4556 30.2327 17.2971 30.3214 17.1394 30.4114C16.6961 30.6543 16.3643 30.7859 15.8593 30.699C15.6122 30.5127 15.6122 30.5127 15.4061 30.2459C15.3773 29.9241 15.3773 29.9241 15.4177 29.5479C15.4323 29.4064 15.4468 29.2649 15.4618 29.1192C15.4806 28.9661 15.4998 28.813 15.5194 28.6599C15.5287 28.5841 15.5381 28.5082 15.5477 28.4301C15.6201 27.8481 15.7026 27.2676 15.7871 26.6873C15.8068 26.5516 15.8068 26.5516 15.8268 26.4131C15.8957 25.9365 15.9653 25.4601 16.0355 24.9837C16.1076 24.4931 16.1774 24.0021 16.2468 23.5111C16.3008 23.1313 16.3565 22.7518 16.4127 22.3724C16.4392 22.1913 16.4651 22.0102 16.4903 21.829C16.5256 21.5767 16.5632 21.3248 16.6015 21.0729C16.6223 20.9298 16.6431 20.7867 16.6645 20.6392C16.8738 19.8889 17.2664 19.7221 18.0116 19.824Z" fill="#29AAE3"/>
<path d="M27.4139 12.9142C27.676 13.1027 27.7466 13.2282 27.8336 13.5412C27.8512 13.657 27.8688 13.7728 27.887 13.8921C27.908 14.0257 27.929 14.1593 27.9506 14.2969C27.9721 14.4434 27.9936 14.5899 28.0157 14.7408C28.0392 14.8946 28.0628 15.0484 28.0864 15.2022C28.1378 15.5385 28.1882 15.875 28.2379 16.2115C28.3102 16.7008 28.3849 17.1897 28.4599 17.6785C28.5236 18.0952 28.5865 18.512 28.6491 18.9288C28.6798 19.1325 28.7106 19.3362 28.7418 19.5399C29.1617 22.3003 29.1617 22.3003 28.7733 22.8829C28.2612 23.0561 27.94 22.9731 27.4592 22.7418C27.3812 22.7019 27.3032 22.662 27.2228 22.6209C27.1378 22.5792 27.0529 22.5375 26.9653 22.4945C26.3001 22.165 25.6438 21.818 24.9898 21.4669C24.3109 21.1051 23.6238 20.7618 22.9336 20.4221C22.7375 20.3253 22.5414 20.2286 22.3454 20.1318C22.0483 19.9852 21.7511 19.8391 21.4533 19.6942C21.1717 19.5571 20.8908 19.4187 20.61 19.28C20.5244 19.2389 20.4388 19.1977 20.3507 19.1553C19.5965 18.7802 19.5965 18.7802 19.371 18.3517C19.3356 17.9764 19.3356 17.9764 19.4843 17.5587C19.7045 17.3713 19.7045 17.3713 19.9852 17.1839C20.0876 17.115 20.1901 17.0461 20.2957 16.9752C20.7995 16.6469 21.3047 16.3215 21.8136 16.0011C22.0333 15.862 22.2529 15.7229 22.4725 15.5838C22.5801 15.5156 22.6878 15.4474 22.7987 15.3772C23.2436 15.0944 23.6864 14.8081 24.1288 14.5213C24.206 14.4716 24.2833 14.4219 24.3628 14.3706C24.7382 14.1286 25.1104 13.8832 25.4784 13.6301C25.5494 13.5822 25.6204 13.5343 25.6935 13.4849C25.8846 13.3556 26.0745 13.2246 26.2643 13.0934C26.6858 12.8816 26.9481 12.8538 27.4139 12.9142Z" fill="#29AAE3"/>
<path d="M39.9843 -0.0603028C41.4701 0.327542 42.6649 2.7776 43.4053 4.03552C45.6085 7.91084 46.0792 12.6295 44.9284 16.9111C44.8707 17.1153 44.8123 17.3193 44.7532 17.5231C44.7259 17.618 44.6987 17.7129 44.6706 17.8108C44.5018 18.3636 44.3096 18.8004 43.9531 19.2577C43.6019 19.4333 43.3211 19.4038 42.9336 19.371C42.6079 19.194 42.6079 19.194 42.3672 18.9178C42.1869 18.2246 42.3326 17.7608 42.5654 17.1124C43.8445 13.2431 43.5296 9.09188 41.706 5.44338C41.005 4.10358 40.1127 2.91966 39.0745 1.82477C38.7917 1.51622 38.7475 1.40606 38.6997 0.984009C38.7422 0.566284 38.7422 0.566284 38.9687 0.23352C39.3213 -0.00882868 39.554 -0.0924742 39.9843 -0.0603028Z" fill="#29AAE3"/>
<path d="M2.15241 7.13689C2.43561 7.35638 2.43561 7.35638 2.60553 7.7033C2.63486 8.16024 2.53491 8.60704 2.45154 9.05471C2.03581 11.2913 1.97402 13.5207 2.49225 15.7463C2.5187 15.8627 2.5187 15.8627 2.54568 15.9816C3.13333 18.4694 4.38376 20.679 6.12743 22.5334C6.59028 23.0389 6.75125 23.3116 6.72171 24.0012C6.68366 24.2424 6.68366 24.2424 6.52082 24.5326C6.09737 24.7702 5.68436 24.804 5.211 24.6955C4.55541 24.2483 4.11158 23.613 3.62506 22.9963C3.54431 22.8999 3.46356 22.8035 3.38036 22.7042C1.6134 20.5107 0.536441 17.723 0.113345 14.9533C0.0926089 14.8216 0.0718731 14.6899 0.050509 14.5542C-0.213641 12.35 -0.252026 9.54352 0.679751 7.47674C1.1047 6.96534 1.53103 6.98427 2.15241 7.13689Z" fill="#29AAE3"/>
<path d="M38.1758 9.51566C38.8928 10.2684 38.7818 11.642 38.7762 12.6294C38.7099 15.3152 37.6152 17.742 35.7969 19.711C35.3785 19.9899 35.0362 20.0273 34.5508 19.9375C34.2109 19.711 34.2109 19.711 33.9844 19.3711C33.9201 18.8111 33.9003 18.586 34.2251 18.118C34.3321 18.0056 34.4408 17.8947 34.5508 17.7852C35.5488 16.701 36.1914 15.3816 36.4766 13.9336C36.5023 13.8075 36.528 13.6813 36.5544 13.5513C36.6322 12.6494 36.6168 11.7693 36.4766 10.875C36.4376 10.5502 36.4443 10.3022 36.4766 9.96879C37.0105 9.29061 37.379 9.21688 38.1758 9.51566Z" fill="#29AAE3"/>
<path d="M10.4855 4.69434C10.9482 4.77005 11.1333 4.85786 11.4413 5.21118C11.5851 5.66787 11.6114 5.89303 11.3918 6.32275C11.2344 6.52956 11.0662 6.725 10.897 6.92235C9.75454 8.28491 8.97174 9.92312 8.92922 11.7182C8.92652 11.831 8.92382 11.9438 8.92104 12.0601C8.91616 12.2948 8.91262 12.5297 8.91042 12.7645C8.88646 13.6241 8.88646 13.6241 8.61858 14.0644C8.33492 14.3161 8.2158 14.3803 7.83756 14.4224C7.3937 14.3788 7.22579 14.2405 6.91007 13.9338C6.20166 12.517 6.84545 10.1399 7.3101 8.7229C7.76163 7.44396 8.98143 4.93182 10.4855 4.69434Z" fill="#29AAE3"/>
<path d="M5.68527 -0.0849609C6.17006 0.0104064 6.37843 0.062176 6.68356 0.453125C6.80208 0.821422 6.79321 1.1021 6.68356 1.47266C6.46973 1.7707 6.23012 2.01828 5.97157 2.27846C5.55351 2.72299 5.21019 3.21019 4.8592 3.70825C4.07855 4.80303 4.07855 4.80303 3.61391 4.94234C3.21778 4.92895 2.9865 4.9028 2.66916 4.65869C2.37296 4.25586 2.33585 4.01289 2.37887 3.51172C2.86289 2.55819 3.60623 1.71023 4.30466 0.90625C4.3819 0.814107 4.45915 0.721964 4.53874 0.627029C5.15026 -0.0539024 5.15026 -0.0539024 5.68527 -0.0849609Z" fill="#29AAE3"/>
<path d="M9.85547 16.7654C10.5931 17.2086 11.289 18.0243 11.5688 18.8328C11.5465 19.3248 11.328 19.5976 10.9883 19.9373C10.527 20.0089 10.2476 20.0389 9.84485 19.7917C9.21665 19.2613 8.56621 18.6518 8.42529 17.8203C8.50738 17.3853 8.63853 17.1894 8.94922 16.8787C9.2843 16.7111 9.48189 16.7161 9.85547 16.7654Z" fill="#29AAE3"/>
<path d="M40.6711 21.9265C41.0778 22.0175 41.2348 22.2038 41.4609 22.5429C41.5873 23.0753 41.5873 23.0753 41.4609 23.4492C41.1245 23.9148 40.7371 24.4341 40.2148 24.6953C39.8683 24.7421 39.5412 24.7487 39.1953 24.6953C38.8311 24.4021 38.7587 24.2084 38.6643 23.7536C38.7767 23.1505 39.1126 22.854 39.5352 22.4296C39.6076 22.3362 39.68 22.2427 39.7546 22.1464C40.0522 21.93 40.3069 21.9054 40.6711 21.9265Z" fill="#29AAE3"/>
<path d="M34.926 4.67285C35.5185 4.79337 35.8345 5.12826 36.25 5.55078C36.2874 5.58816 36.3247 5.62555 36.3633 5.66406C36.4227 6.14429 36.4467 6.55003 36.1863 6.9668C35.8125 7.19679 35.5566 7.25 35.1172 7.25C34.6284 7.00084 34.2643 6.70418 33.9843 6.23047C33.915 5.9117 33.9112 5.64249 33.9843 5.32422C34.2675 4.91231 34.4385 4.78323 34.926 4.67285Z" fill="#29AAE3"/>
</g>
<defs>
<clipPath id="clip0_237_449">
<rect width="58" height="58" fill="white"/>
</clipPath>
</defs>
</svg>
