<svg width="58" height="71" viewBox="0 0 58 71" fill="none" xmlns="http://www.w3.org/2000/svg">
<path d="M33.9495 37.3416C35.5757 38.9655 36.9025 41.2094 37.1561 43.8204C37.3215 46.8324 37.0057 49.6384 35.346 51.9894C33.8499 53.9954 31.9867 55.3837 29.73 55.5122C27.3861 55.5943 25.2831 55.0379 23.5128 53.0594C21.8427 51.0987 20.8651 48.8108 20.7982 45.9511C20.7714 43.1226 21.3497 40.6338 22.9733 38.5615C25.8678 35.014 30.5764 34.221 33.9495 37.3416ZM28.6534 39.072C28.5253 39.2734 28.3978 39.4753 28.2706 39.6776C28.2015 39.787 28.1323 39.8965 28.0611 40.0092C27.5106 40.8841 26.974 41.7709 26.4417 42.6624C25.8429 43.6635 25.2284 44.6492 24.6092 45.6315C24.5367 45.7471 24.4641 45.8627 24.3894 45.9818C24.3254 46.0834 24.2613 46.185 24.1953 46.2896C23.8297 46.9083 23.5801 47.3334 23.6757 48.1193C23.9285 48.5142 24.0778 48.6531 24.4686 48.8126C24.6778 48.824 24.8872 48.8275 25.0965 48.8262C25.2789 48.8255 25.2789 48.8255 25.4649 48.8248C25.5918 48.8236 25.7186 48.8225 25.8492 48.8213C25.9774 48.8207 26.1055 48.82 26.2375 48.8194C26.5542 48.8178 26.8708 48.8155 27.1874 48.8126C27.1856 48.9091 27.1838 49.0055 27.182 49.1049C27.1749 49.5448 27.1705 49.9847 27.1661 50.4247C27.1633 50.5764 27.1604 50.7282 27.1575 50.8846C27.1455 51.9882 27.1455 51.9882 27.5272 52.9728C27.8504 53.1706 28.0749 53.1545 28.4335 53.1114C28.8561 52.7502 29.1638 52.3398 29.4813 51.8461C29.8196 51.3291 30.1642 50.827 30.5292 50.338C30.882 49.8641 31.2193 49.3804 31.5487 48.882C31.8781 48.3835 32.2154 47.8998 32.5682 47.4259C33.71 46.059 33.71 46.059 34.3666 44.3838C34.3533 43.9478 34.3533 43.9478 34.1188 43.6384C33.7175 43.2594 33.394 43.249 32.9032 43.2522C32.7209 43.2529 32.7209 43.2529 32.5348 43.2536C32.408 43.2547 32.2812 43.2559 32.1505 43.2571C31.9583 43.258 31.9583 43.258 31.7622 43.259C31.4456 43.2606 31.129 43.2629 30.8124 43.2657C30.8142 43.1357 30.8159 43.0056 30.8178 42.8716C30.8236 42.3862 30.8278 41.9009 30.8311 41.4155C30.8328 41.206 30.8351 40.9964 30.838 40.7869C30.8422 40.4847 30.8441 40.1825 30.8456 39.8802C30.8482 39.6079 30.8482 39.6079 30.851 39.33C30.8094 38.789 30.7055 38.4557 30.4725 37.9962C29.5964 37.4599 29.1492 38.313 28.6534 39.072Z" fill="#29AAE3"/>
<path d="M22.6562 54.7754C22.9927 55.05 23.3291 55.3245 23.6758 55.6074C25.987 57.3575 28.6025 57.9519 31.2679 57.2076C32.7862 56.74 34.0733 55.8862 35.3438 54.7754C35.3438 59.0312 35.3438 63.2871 35.3438 67.6719C31.1569 67.6719 26.97 67.6719 22.6562 67.6719C22.6562 63.416 22.6562 59.1602 22.6562 54.7754Z" fill="#29AAE3"/>
<path d="M24.2352 25.4439C24.3494 25.4429 24.4636 25.4419 24.5814 25.4409C24.9592 25.4385 25.337 25.4401 25.7149 25.442C25.9773 25.4416 26.2397 25.4411 26.5021 25.4404C27.0522 25.4396 27.6022 25.4408 28.1522 25.4433C28.8577 25.4465 29.5632 25.4447 30.2687 25.4414C30.8106 25.4394 31.3524 25.44 31.8943 25.4414C32.1545 25.4418 32.4146 25.4414 32.6748 25.4401C33.0382 25.4387 33.4015 25.4408 33.7649 25.4439C33.9267 25.4422 33.9267 25.4422 34.0917 25.4405C34.5287 25.4474 34.8069 25.453 35.1844 25.7355C35.4038 26.1963 35.3982 26.53 35.3952 27.0626C35.3953 27.1614 35.3954 27.2602 35.3954 27.362C35.3951 27.6877 35.3916 28.0133 35.388 28.3389C35.3872 28.5651 35.3866 28.7913 35.3861 29.0174C35.3844 29.612 35.3799 30.2065 35.3749 30.8011C35.3703 31.4081 35.3682 32.0151 35.3659 32.6221C35.3611 33.8125 35.3533 35.003 35.3438 36.1934C35.2754 36.1369 35.2069 36.0803 35.1364 36.0221C35.0458 35.9476 34.9552 35.8731 34.8618 35.7964C34.7723 35.7227 34.6829 35.649 34.5907 35.5731C34.2213 35.2796 33.8406 35.0284 33.4463 34.7893C33.3692 34.7423 33.292 34.6953 33.2126 34.6468C31.0636 33.3728 28.4379 33.078 26.1388 33.9199C24.9844 34.4465 23.8776 35.027 22.936 36.0201C22.7696 36.1934 22.7696 36.1934 22.6563 36.1934C22.6458 34.8831 22.6377 33.5728 22.6328 32.2625C22.6305 31.6541 22.6272 31.0456 22.6221 30.4372C22.6172 29.8501 22.6145 29.263 22.6133 28.6758C22.6125 28.4518 22.6108 28.2278 22.6084 28.0037C22.6051 27.69 22.6046 27.3764 22.6049 27.0626C22.6038 26.884 22.6028 26.7054 22.6018 26.5214C22.6563 26.0704 22.6563 26.0704 22.8157 25.7355C23.2733 25.393 23.7087 25.4384 24.2352 25.4439Z" fill="#29AAE3"/>
<path d="M31.7188 12.2031C32.3169 12.2031 32.915 12.2031 33.5312 12.2031C33.5312 15.8641 33.5312 19.525 33.5312 23.2969C32.9331 23.2969 32.335 23.2969 31.7188 23.2969C31.7188 19.6359 31.7188 15.975 31.7188 12.2031Z" fill="#29AAE3"/>
<path d="M28.0938 12.2031C28.6919 12.2031 29.29 12.2031 29.9062 12.2031C29.9062 15.8641 29.9062 19.525 29.9062 23.2969C29.3081 23.2969 28.71 23.2969 28.0938 23.2969C28.0938 19.6359 28.0938 15.975 28.0938 12.2031Z" fill="#29AAE3"/>
<path d="M24.4688 12.2031C25.0669 12.2031 25.665 12.2031 26.2812 12.2031C26.2812 15.8641 26.2812 19.525 26.2812 23.2969C25.6831 23.2969 25.085 23.2969 24.4688 23.2969C24.4688 19.6359 24.4688 15.975 24.4688 12.2031Z" fill="#29AAE3"/>
<path d="M34.5508 1.38672C34.9677 1.59978 35.2291 1.91111 35.542 2.30542C35.6325 2.41875 35.7231 2.53208 35.8163 2.64885C35.8847 2.73573 35.953 2.8226 36.0234 2.91211C35.8684 3.32844 35.6859 3.6409 35.4429 3.98682C34.3117 5.74527 33.7774 7.77156 33.6445 9.98438C33.009 9.98438 32.3735 9.98438 31.7187 9.98438C31.58 6.96921 32.6139 4.08859 34.2109 1.8374C34.3234 1.68624 34.4363 1.5356 34.5508 1.38672Z" fill="#29AAE3"/>
<path d="M23.2227 1.38672C24.323 1.89956 25.0511 3.88679 25.5232 5.12923C26.0884 6.70853 26.2983 8.27148 26.2812 9.98438C25.6457 9.98438 25.0102 9.98438 24.3555 9.98438C24.3298 9.6812 24.3041 9.37803 24.2776 9.06567C24.0494 6.82324 23.2604 4.81353 21.9766 3.18945C22.1506 2.67904 22.4049 2.35912 22.7271 1.97607C22.8196 1.86525 22.9122 1.75442 23.0076 1.64023C23.1141 1.51474 23.1141 1.51474 23.2227 1.38672Z" fill="#29AAE3"/>
<path d="M28.0938 2.21875C28.6919 2.21875 29.29 2.21875 29.9062 2.21875C29.9062 4.78141 29.9062 7.34406 29.9062 9.98438C29.3081 9.98438 28.71 9.98438 28.0938 9.98438C28.0938 7.42172 28.0938 4.85906 28.0938 2.21875Z" fill="#29AAE3"/>
<path d="M28.8867 42.1562C28.9241 42.1562 28.9615 42.1562 29 42.1562C29.0055 42.3084 29.0111 42.4605 29.0168 42.6172C29.0253 42.8189 29.0339 43.0206 29.0425 43.2223C29.046 43.3223 29.0495 43.4223 29.0531 43.5254C29.0885 44.3314 29.0885 44.3314 29.3398 45.0684C29.7897 45.3965 30.2794 45.4036 30.7913 45.4324C30.909 45.4404 30.909 45.4404 31.0291 45.4486C31.2212 45.4616 31.4133 45.4731 31.6055 45.4844C31.1602 46.2475 30.6767 46.9603 30.1753 47.6685C30.1116 47.7586 30.0479 47.8487 29.9823 47.9415C29.6659 48.3858 29.3466 48.8187 29 49.2285C28.9945 49.1264 28.9889 49.0244 28.9832 48.9192C28.9747 48.7839 28.9662 48.6486 28.9575 48.5092C28.9496 48.3756 28.9417 48.2421 28.9336 48.1045C28.8847 47.6855 28.8301 47.3792 28.6602 47.0098C28.1961 46.6662 27.6807 46.6735 27.1521 46.6458C27.0682 46.6404 26.9843 46.635 26.8979 46.6295C26.6924 46.6165 26.4868 46.605 26.2812 46.5938C26.44 46.1781 26.6261 45.8209 26.849 45.4524C26.9162 45.341 26.9835 45.2295 27.0528 45.1147C27.1229 44.9993 27.1931 44.8839 27.2654 44.765C27.3673 44.596 27.3673 44.596 27.4714 44.4235C27.8221 43.8438 28.1764 43.2677 28.5349 42.6952C28.6321 42.5399 28.6321 42.5399 28.7313 42.3814C28.7826 42.3071 28.8339 42.2328 28.8867 42.1562Z" fill="#29AAE3"/>
</svg>
