<svg width="58" height="58" viewBox="0 0 58 58" fill="none" xmlns="http://www.w3.org/2000/svg">
<path d="M13.399 0.000471129C13.4806 0.000355739 13.5622 0.00024035 13.6463 0.000121463C13.8186 3.9491e-05 13.991 0.000261328 14.1633 0.000765585C14.4269 0.001411 14.6905 0.000771351 14.9541 0C15.1216 7.97009e-05 15.2892 0.00023423 15.4567 0.000471129C15.6091 0.000607168 15.7616 0.000743206 15.9186 0.000883367C16.2971 0.0164895 16.2971 0.0164895 16.6589 0.137099C16.6987 0.853516 16.7385 1.56993 16.7795 2.30806C17.0432 2.37274 17.3068 2.43741 17.5785 2.50405C18.7279 2.80211 19.846 3.20525 20.8346 3.87598C20.9689 3.95558 21.1032 4.03518 21.2416 4.1172C21.8078 3.94639 22.1575 3.43088 22.5418 3.00769C22.8094 2.7905 22.8094 2.7905 23.0407 2.77966C23.4095 2.97273 23.6944 3.24394 23.9927 3.52923C24.0567 3.58926 24.1207 3.64929 24.1866 3.71114C24.3717 3.88564 24.5556 4.06141 24.7389 4.23781C24.8702 4.36374 24.8702 4.36374 25.0041 4.49221C25.3885 4.86913 25.7397 5.25503 26.0655 5.68511C25.8741 6.15583 25.567 6.4492 25.2062 6.80075C25.0965 6.90833 24.9867 7.01592 24.8737 7.12677C24.7473 7.24897 24.7473 7.24897 24.6183 7.37364C24.6796 7.47314 24.7408 7.57264 24.8039 7.67516C25.6313 9.05115 26.2639 10.4871 26.5479 12.0774C27.2642 12.1172 27.9806 12.157 28.7186 12.198C28.8328 12.6546 28.8548 13.0082 28.8552 13.4757C28.8554 13.6298 28.8556 13.7838 28.8557 13.9426C28.8555 14.0225 28.8552 14.1024 28.855 14.1847C28.8543 14.4285 28.8549 14.6722 28.8557 14.9159C28.8555 15.1471 28.8555 15.1471 28.8552 15.3828C28.8551 15.5238 28.855 15.6647 28.8548 15.8099C28.8392 16.1781 28.8392 16.1781 28.7186 16.6605C28.0023 16.7003 27.2859 16.7401 26.5479 16.7811C26.4832 17.0473 26.4185 17.3135 26.3519 17.5877C26.034 18.8209 25.512 19.9439 24.8218 21.0142C24.7134 21.2434 24.7134 21.2434 24.8091 21.4807C25.0968 21.8936 25.4773 22.207 25.8483 22.544C26.0655 22.8116 26.0655 22.8116 26.0763 23.0429C25.8833 23.4117 25.6121 23.6967 25.3268 23.9951C25.2368 24.091 25.2368 24.091 25.1449 24.1889C24.9705 24.3741 24.7947 24.558 24.6183 24.7413C24.5344 24.8289 24.4504 24.9164 24.3639 25.0066C23.5891 25.7969 23.5891 25.7969 23.1712 26.068C22.656 26.0426 22.3962 25.6909 22.0556 25.3368C21.8943 25.1706 21.8943 25.1706 21.7296 25.0009C21.6075 24.8724 21.6075 24.8724 21.4828 24.7413C21.0445 24.9049 20.6346 25.1058 20.2202 25.3224C19.1026 25.9042 18.0207 26.3022 16.7795 26.5505C16.7397 27.2669 16.6999 27.9833 16.6589 28.7214C16.2024 28.8356 15.8488 28.8576 15.3813 28.8581C15.2273 28.8582 15.0732 28.8584 14.9145 28.8585C14.8346 28.8583 14.7547 28.858 14.6724 28.8578C14.4287 28.8571 14.185 28.8578 13.9412 28.8585C13.7872 28.8584 13.6331 28.8582 13.4744 28.8581C13.263 28.8579 13.263 28.8579 13.0474 28.8577C12.6792 28.842 12.6792 28.842 12.1968 28.7214C12.1371 27.6468 12.1371 27.6468 12.0762 26.5505C11.8126 26.4858 11.5489 26.4211 11.2773 26.3545C9.8675 25.9883 8.60275 25.4034 7.37292 24.6207C6.89536 25.0983 6.41779 25.576 5.92575 26.068C4.78916 25.4997 3.48076 24.2544 2.79022 23.1734C2.81689 22.6579 3.16695 22.3988 3.52135 22.0578C3.63219 21.9502 3.74303 21.8426 3.85723 21.7318C3.98571 21.6096 3.98571 21.6096 4.11679 21.4849C3.9562 21.0533 3.7579 20.6529 3.54184 20.2466C2.99161 19.2023 2.30784 17.8682 2.30784 16.6605C1.59149 16.6605 0.87514 16.6605 0.137085 16.6605C-0.00369809 16.2381 0.000868666 15.9038 0.000471083 15.4582C0.000355704 15.3766 0.000240326 15.295 0.000121451 15.2109C3.94872e-05 15.0385 0.000261302 14.8662 0.00076551 14.6939C0.00141087 14.4302 0.000771276 14.1666 0 13.903C7.96931e-05 13.7355 0.000234207 13.5679 0.000471083 13.4003C0.000607108 13.2479 0.000743133 13.0954 0.000883281 12.9384C0.0164879 12.5598 0.0164879 12.5598 0.137085 12.198C0.853433 12.198 1.56978 12.198 2.30784 12.198C2.37002 11.9194 2.4322 11.6408 2.49627 11.3537C2.67305 10.6157 2.90687 9.92268 3.21232 9.228C3.2466 9.14965 3.28089 9.07129 3.31622 8.99055C3.54183 8.49495 3.80542 8.05874 4.11679 7.61486C3.8844 7.04987 3.45131 6.71776 3.00739 6.31454C2.79022 6.04694 2.79022 6.04694 2.78834 5.80666C3.32027 4.75497 4.66808 3.38908 5.68456 2.7905C6.06423 2.78973 6.19165 2.93301 6.47786 3.18672C6.5842 3.29726 6.69053 3.4078 6.80008 3.52169C6.90766 3.63254 7.01524 3.74339 7.12607 3.8576C7.20753 3.94327 7.28899 4.02893 7.37292 4.1172C7.81126 3.95365 8.22115 3.75276 8.63551 3.53609C9.75307 2.95434 10.8351 2.55631 12.0762 2.30806C12.116 1.59164 12.1558 0.875226 12.1968 0.137099C12.6192 -0.00369845 12.9535 0.00086875 13.399 0.000471129ZM9.06222 10.0497C7.85551 11.4999 7.33233 13.3446 7.49352 15.2132C7.7775 17.1757 8.80837 18.7632 10.3125 20.015C11.6588 21.005 13.4188 21.5573 15.0911 21.3643C17.232 20.9803 18.9007 20.058 20.2132 18.2727C21.2221 16.709 21.6153 14.8729 21.2258 13.0531C20.7674 11.1126 19.6752 9.54767 17.9855 8.45912C14.8499 6.72324 11.4413 7.43709 9.06222 10.0497Z" fill="#29AAE3"/>
<path d="M13.5257 30.5557C14.1236 30.5557 14.7216 30.5557 15.3377 30.5557C15.3377 32.9787 15.3377 35.4017 15.3377 37.8981C15.537 37.9378 15.7363 37.9776 15.9417 38.0185C15.9417 38.5349 15.9417 39.0512 15.9417 39.5833C16.1323 39.5944 16.1323 39.5944 16.3267 39.6058C17.391 39.7379 18.4226 40.223 19.324 40.7869C19.643 40.4692 19.9619 40.1514 20.2904 39.824C21.2136 40.2839 21.9595 41.0592 22.5856 41.8703C22.4209 42.2304 22.2294 42.507 21.9665 42.8031C21.9014 42.877 21.8364 42.9508 21.7693 43.0269C21.7198 43.0822 21.6703 43.1374 21.6192 43.1943C21.6872 43.2911 21.6872 43.2911 21.7566 43.3899C22.3611 44.3124 22.6524 45.2734 22.948 46.3239C23.4264 46.3636 23.9048 46.4033 24.3976 46.4442C24.4375 46.6428 24.4774 46.8415 24.5184 47.0461C29.1825 47.0461 33.8466 47.0461 38.652 47.0461C38.652 46.6886 38.652 46.3311 38.652 45.9628C38.7781 46.0093 38.9043 46.0559 39.0342 46.1038C43.7317 47.7822 49.1328 47.8204 53.9935 46.8881C54.1132 46.8654 54.2328 46.8427 54.3561 46.8194C55.3385 46.6178 56.1657 46.3075 57.1343 45.9628C57.1343 47.2736 57.1343 48.5844 57.1343 49.9349C52.2979 52.3445 45.1411 52.2511 40.0596 50.6172C38.8927 50.1909 38.8927 50.1909 38.652 49.8145C38.652 49.4968 38.652 49.179 38.652 48.8516C33.9879 48.8516 29.3238 48.8516 24.5184 48.8516C24.4786 49.0899 24.4387 49.3283 24.3976 49.5738C23.8794 49.5738 23.3612 49.5738 22.8272 49.5738C22.8198 49.7029 22.8123 49.832 22.8046 49.965C22.7031 50.7868 22.35 51.6078 21.8939 52.2957C21.7169 52.5662 21.7169 52.5662 21.7547 52.8369C21.8779 53.101 22.0178 53.257 22.2308 53.4557C22.297 53.5184 22.3631 53.581 22.4313 53.6456C22.4823 53.6922 22.5332 53.7387 22.5856 53.7867C22.406 54.4051 22.0226 54.7628 21.5739 55.201C21.5042 55.2719 21.4344 55.3428 21.3625 55.4159C21.2943 55.4834 21.2261 55.5509 21.1559 55.6204C21.0941 55.6815 21.0324 55.7426 20.9688 55.8056C20.7415 55.9776 20.5731 56.039 20.2904 56.0737C20.0471 55.8738 19.8635 55.6475 19.66 55.4079C19.4637 55.2067 19.4637 55.2067 19.2306 55.2391C18.8466 55.3996 18.4741 55.5815 18.1009 55.7652C17.385 56.1098 16.7352 56.3253 15.9417 56.4348C15.9417 56.9512 15.9417 57.4675 15.9417 57.9996C14.9451 57.9996 13.9485 57.9996 12.9217 57.9996C12.9217 57.4832 12.9217 56.9668 12.9217 56.4348C12.6949 56.3926 12.4682 56.3504 12.2346 56.3069C11.4237 56.1257 10.8232 55.8193 10.1164 55.391C9.80335 55.2093 9.80335 55.2093 9.51898 55.2438C9.26074 55.3694 9.10121 55.5113 8.90507 55.7201C8.84216 55.786 8.77925 55.852 8.71444 55.9199C8.66772 55.9707 8.621 56.0214 8.57287 56.0737C7.9522 55.8947 7.59325 55.5127 7.15348 55.0656C7.08231 54.9961 7.01115 54.9266 6.93783 54.855C6.83622 54.753 6.83622 54.753 6.73257 54.649C6.67125 54.5875 6.60994 54.526 6.54677 54.4626C6.37408 54.2362 6.31244 54.0683 6.27768 53.7867C6.47833 53.5442 6.70539 53.3613 6.94585 53.1585C7.14912 52.9621 7.14912 52.9621 7.11148 52.725C6.9667 52.3765 6.81052 52.0358 6.64763 51.6953C5.99179 50.3241 5.99179 50.3241 6.03608 49.5738C5.86814 49.5759 5.86814 49.5759 5.6968 49.578C5.55214 49.5791 5.40748 49.5802 5.25843 49.5813C5.11408 49.5827 4.96973 49.5841 4.82101 49.5856C4.46568 49.5738 4.46568 49.5738 4.34488 49.4534C4.33287 49.2406 4.32908 49.0272 4.32884 48.814C4.32869 48.6846 4.32853 48.5552 4.32837 48.4218C4.32907 48.2175 4.32907 48.2175 4.32978 48.009C4.32932 47.8728 4.32885 47.7366 4.32837 47.5962C4.32852 47.4668 4.32868 47.3374 4.32884 47.2041C4.32898 47.0844 4.32911 46.9648 4.32925 46.8415C4.34488 46.5646 4.34488 46.5646 4.46568 46.4442C4.70921 46.416 4.95353 46.3945 5.19803 46.3765C5.33148 46.3664 5.46493 46.3564 5.60243 46.346C5.70567 46.3387 5.80891 46.3314 5.91528 46.3239C5.95187 46.1974 5.98847 46.071 6.02617 45.9407C6.28149 45.0815 6.51944 44.2839 7.02418 43.531C7.14375 43.3169 7.14375 43.3169 7.10204 43.0702C6.98614 42.7943 6.85092 42.6457 6.63253 42.442C6.56635 42.3793 6.50017 42.3166 6.43198 42.252C6.3556 42.1822 6.3556 42.1822 6.27768 42.111C6.71169 41.1642 7.54197 40.4777 8.33127 39.824C8.69273 39.9881 8.97034 40.179 9.26747 40.4409C9.34159 40.5057 9.41572 40.5706 9.49208 40.6374C9.54752 40.6868 9.60295 40.7361 9.66007 40.7869C9.84693 40.6566 9.84693 40.6566 10.0376 40.5236C10.9021 39.9843 11.8997 39.5833 12.9217 39.5833C12.9217 39.0669 12.9217 38.5505 12.9217 38.0185C13.121 37.9788 13.3203 37.939 13.5257 37.8981C13.5257 35.4751 13.5257 33.0521 13.5257 30.5557ZM10.7034 44.8639C9.74701 46.1035 9.4934 47.451 9.66007 48.972C10.0129 50.3452 10.8302 51.4007 12.0105 52.1692C13.2588 52.8724 14.5691 52.9424 15.9417 52.583C17.4296 52.0332 18.2814 51.073 18.9659 49.6805C19.3884 48.6408 19.3585 47.3853 19.0069 46.3314C18.4823 45.1 17.5227 44.0135 16.2663 43.5027C14.1912 42.7602 12.2166 43.2929 10.7034 44.8639Z" fill="#29AAE3"/>
<path d="M47.2168 4.2502C47.346 4.25005 47.4753 4.24989 47.6085 4.24973C47.7445 4.2502 47.8806 4.25066 48.0208 4.25115C48.1569 4.25068 48.293 4.25021 48.4332 4.24973C48.5624 4.24989 48.6917 4.25004 48.8249 4.2502C48.9444 4.25034 49.0639 4.25047 49.187 4.25061C49.4636 4.26625 49.4636 4.26625 49.5838 4.38705C49.5926 4.65117 49.5939 4.91557 49.5914 5.17982C49.5903 5.32449 49.5892 5.46916 49.5881 5.61821C49.586 5.78616 49.586 5.78616 49.5838 5.9575C49.7128 5.96497 49.8417 5.97245 49.9746 5.98015C50.7954 6.08159 51.6155 6.43471 52.3027 6.89089C52.5729 7.06788 52.5729 7.06788 52.8433 7.0301C53.1071 6.90686 53.2629 6.76696 53.4613 6.55396C53.5239 6.48778 53.5866 6.4216 53.6511 6.35341C53.7208 6.27703 53.7208 6.27703 53.792 6.1991C54.4097 6.37878 54.767 6.76215 55.2047 7.21083C55.2755 7.2806 55.3464 7.35036 55.4193 7.42224C55.4867 7.49045 55.5542 7.55865 55.6236 7.62893C55.6847 7.69065 55.7457 7.75238 55.8086 7.81597C55.9804 8.04327 56.0418 8.21172 56.0764 8.49437C55.8767 8.73772 55.6507 8.92134 55.4113 9.12482C55.2104 9.32111 55.2104 9.32111 55.2427 9.55423C55.403 9.9383 55.5848 10.3107 55.7683 10.6839C56.1124 11.3999 56.3277 12.0498 56.4371 12.8433C56.9529 12.8433 57.4687 12.8433 58.0001 12.8433C58.0001 13.8399 58.0001 14.8366 58.0001 15.8634C57.4843 15.8634 56.9685 15.8634 56.4371 15.8634C56.3949 16.0677 56.3528 16.272 56.3093 16.4825C56.1169 17.2768 55.7858 17.9284 55.3944 18.6381C55.2138 18.9784 55.2138 18.9784 55.2474 19.2704C55.3737 19.5253 55.5166 19.6858 55.7232 19.8801C55.7891 19.943 55.8549 20.0059 55.9228 20.0708C55.9735 20.1175 56.0242 20.1642 56.0764 20.2123C55.8988 20.8044 55.5655 21.1427 55.1371 21.5638C55.0744 21.6282 55.0117 21.6926 54.9471 21.7589C54.5867 22.1183 54.2893 22.357 53.792 22.5076C53.7368 22.4451 53.6816 22.3827 53.6248 22.3184C53.551 22.2388 53.4772 22.1592 53.4012 22.0772C53.3287 21.9973 53.2561 21.9175 53.1814 21.8351C52.9687 21.6371 52.9687 21.6371 52.7291 21.6742C52.3841 21.8184 52.0473 21.975 51.7104 22.1376C50.986 22.4779 50.3924 22.7492 49.5838 22.7492C49.5838 23.2674 49.5838 23.7857 49.5838 24.3196C49.3458 24.3595 49.1077 24.3994 48.8624 24.4404C48.8624 28.3472 48.8624 32.254 48.8624 36.2792C49.7353 36.3191 50.6082 36.3589 51.5076 36.4C52.0265 36.4569 52.5282 36.5164 53.0405 36.6039C53.1645 36.6244 53.2886 36.6449 53.4163 36.6661C56.2323 37.1643 56.2323 37.1643 57.1585 37.9704C57.0963 38.5214 57.0963 38.5214 56.8523 38.7443C54.2182 40.0582 50.9474 40.1728 48.0659 40.1751C47.929 40.1752 47.929 40.1752 47.7892 40.1754C44.881 40.1713 41.276 40.137 38.7629 38.4537C38.7911 38.1705 38.7911 38.1705 38.8832 37.8496C40.7881 36.3253 44.951 36.3755 47.059 36.2792C47.059 32.3724 47.059 28.4656 47.059 24.4404C46.8606 24.4006 46.6622 24.3607 46.4578 24.3196C46.4578 23.8014 46.4578 23.2831 46.4578 22.7492C46.314 22.7442 46.1701 22.7392 46.022 22.7341C44.9841 22.6215 43.9652 22.0924 43.0913 21.5412C42.7739 21.8601 42.4565 22.179 42.1294 22.5076C41.1869 22.0341 40.5116 21.2597 39.845 20.4539C40.009 20.0925 40.1996 19.8148 40.4612 19.5177C40.526 19.4436 40.5908 19.3695 40.6575 19.2931C40.7068 19.2376 40.7561 19.1822 40.8069 19.1251C40.6767 18.9382 40.6767 18.9382 40.5439 18.7476C40.0051 17.883 39.6046 16.8854 39.6046 15.8634C39.0888 15.8634 38.573 15.8634 38.0416 15.8634C38.0019 15.6641 37.9622 15.4647 37.9213 15.2594C35.501 15.2594 33.0808 15.2594 30.5872 15.2594C30.5872 14.6614 30.5872 14.0634 30.5872 13.4473C33.0074 13.4473 35.4277 13.4473 37.9213 13.4473C37.961 13.248 38.0007 13.0487 38.0416 12.8433C38.5573 12.8433 39.0731 12.8433 39.6046 12.8433C39.612 12.7162 39.6194 12.5892 39.6271 12.4582C39.7591 11.3939 40.2436 10.3622 40.8069 9.4608C40.4895 9.14188 40.1721 8.82296 39.845 8.49437C40.3163 7.54732 41.0871 6.8688 41.889 6.1991C42.2396 6.35776 42.3952 6.46877 42.663 6.76537C42.7646 6.85756 42.8663 6.94975 42.9711 7.04473C43.4574 7.00752 43.8246 6.80739 44.2485 6.57661C44.928 6.22424 45.5933 6.00452 46.3376 5.83669C46.3449 5.73345 46.3521 5.6302 46.3596 5.52383C46.3697 5.39037 46.3798 5.25692 46.3902 5.11942C46.4048 4.91971 46.4048 4.91971 46.4198 4.71596C46.4852 4.15034 46.7005 4.25079 47.2168 4.2502ZM44.0245 11.5819C43.2617 12.644 43.1115 13.8637 43.2115 15.1386C43.5201 16.6071 44.308 17.6357 45.4959 18.5211C46.6557 19.1691 47.9366 19.3293 49.2368 19.0425C50.5296 18.5997 51.4926 17.8707 52.2289 16.709C52.8513 15.4259 52.9497 14.2201 52.5896 12.8433C52.1129 11.5517 51.2423 10.5474 50.0258 9.92089C47.7519 8.94075 45.5666 9.7829 44.0245 11.5819Z" fill="#29AAE3"/>
<path d="M38.7039 40.1758C38.8321 40.2226 38.9603 40.2693 39.0924 40.3175C44.5148 42.2468 51.7398 42.4505 57.08 40.1758C57.0918 40.7376 57.1006 41.2993 57.1064 41.8612C57.1088 42.0523 57.112 42.2434 57.1162 42.4345C57.122 42.7093 57.1248 42.9839 57.1269 43.2587C57.1294 43.3441 57.1318 43.4296 57.1344 43.5176C57.1347 44.1107 57.1347 44.1107 56.8588 44.3961C52.4369 46.6823 45.3295 46.4701 40.6958 45.0457C40.0039 44.8122 39.3135 44.5765 38.7039 44.1673C38.6718 43.8584 38.6621 43.5791 38.6687 43.2705C38.6692 43.1823 38.6697 43.094 38.6703 43.0031C38.6723 42.7208 38.6768 42.4386 38.6814 42.1564C38.6832 41.9652 38.6848 41.774 38.6863 41.5828C38.6903 41.1138 38.6965 40.6448 38.7039 40.1758Z" fill="#29AAE3"/>
<path d="M38.6916 51.4927C38.7577 51.5155 38.8239 51.5384 38.8921 51.562C41.4133 52.4241 43.9848 52.8806 46.6473 52.9558C46.7396 52.9584 46.8318 52.9611 46.9269 52.9639C50.2668 53.0445 53.606 52.7293 56.7728 51.6146C56.8921 51.5744 57.0115 51.5341 57.1344 51.4927C57.1344 52.8204 57.1344 54.1482 57.1344 55.5162C54.3665 56.916 51.3396 57.1679 48.2792 57.1489C47.9051 57.1469 47.5311 57.1489 47.157 57.1512C45.0808 57.1535 43.0099 56.9803 40.9969 56.4382C40.902 56.4149 40.807 56.3915 40.7092 56.3675C39.9826 56.1792 39.2316 55.9405 38.6916 55.3942C38.6705 55.0971 38.6636 54.814 38.668 54.517C38.6684 54.4307 38.6687 54.3445 38.669 54.2556C38.6704 53.9798 38.6734 53.704 38.6765 53.4282C38.6777 53.2414 38.6788 53.0545 38.6798 52.8677C38.6824 52.4093 38.6866 51.951 38.6916 51.4927Z" fill="#29AAE3"/>
<path d="M17.2306 11.8828C17.6686 11.9603 17.6686 11.9603 17.981 12.2053C18.1562 12.5367 18.1562 12.5367 18.179 12.861C17.7903 13.848 16.7123 14.6124 15.9324 15.347C15.7392 15.5292 15.5466 15.712 15.3541 15.8949C15.231 16.0112 15.1079 16.1274 14.9848 16.2437C14.8741 16.3483 14.7634 16.4529 14.6493 16.5607C14.3223 16.852 14.1981 16.9081 13.7532 16.9755C13.0715 16.8923 12.7776 16.5604 12.3058 16.1108C12.1587 15.9779 12.1587 15.9779 12.0087 15.8424C11.1349 15.0423 11.1349 15.0423 10.9651 14.612C10.9879 14.1941 10.9879 14.1941 11.087 13.805C11.4551 13.5728 11.6995 13.4866 12.1425 13.4897C12.7819 13.6795 13.2181 14.2623 13.6465 14.7273C14.1386 14.3453 14.5921 13.9526 15.0286 13.514C15.1205 13.4226 15.2123 13.3312 15.3069 13.237C15.4962 13.0476 15.6838 12.8566 15.8697 12.6642C16.6479 11.8985 16.6479 11.8985 17.2306 11.8828Z" fill="#29AAE3"/>
</svg>
