<svg width="58" height="58" viewBox="0 0 58 58" fill="none" xmlns="http://www.w3.org/2000/svg">
<g clip-path="url(#clip0_237_414)">
<path d="M10.1842 -0.0712891C10.652 0.068964 10.8976 0.409096 11.1321 0.815795C11.2824 1.11206 11.4233 1.4113 11.5617 1.71333C11.6094 1.8138 11.6571 1.91427 11.7062 2.01778C12.0383 2.72823 12.3175 3.45057 12.5742 4.19136C12.5752 4.08049 12.5763 3.96962 12.5774 3.85539C12.5819 3.44324 12.5894 3.03118 12.5977 2.61909C12.6009 2.44088 12.6033 2.26266 12.6049 2.08443C12.6073 1.8279 12.6126 1.57155 12.6184 1.31508C12.6186 1.19593 12.6186 1.19593 12.6189 1.07438C12.6304 0.687242 12.6624 0.485102 12.9042 0.176403C13.1611 -0.0153287 13.2773 -0.0616309 13.5937 -0.0566864C13.6685 -0.0578546 13.7432 -0.0590228 13.8203 -0.0602264C14.1595 0.0298744 14.284 0.177352 14.5 0.453079C14.5473 0.755244 14.5685 1.01281 14.569 1.31508C14.5709 1.39741 14.5727 1.47975 14.5747 1.56458C14.5802 1.82657 14.5826 2.0885 14.5849 2.35054C14.5881 2.52858 14.5915 2.70661 14.5951 2.88464C14.6035 3.32021 14.6091 3.75573 14.6132 4.19136C14.636 4.13163 14.6587 4.07189 14.6821 4.01035C15.0809 2.96864 15.4847 1.9352 16.008 0.948685C16.0448 0.878437 16.0816 0.808189 16.1195 0.735812C16.3089 0.389359 16.4298 0.223786 16.7656 -4.57764e-05C17.5477 -0.0745321 17.5477 -0.0745321 17.955 0.169876C18.192 0.564746 18.1893 0.914994 18.125 1.35933C17.9877 1.73554 17.8023 2.08197 17.6152 2.4355C15.3423 6.98341 14.8218 12.2067 14.6132 17.2187C14.8749 17.2187 15.1366 17.2187 15.4062 17.2187C15.4135 17.1483 15.4209 17.078 15.4284 17.0055C15.7299 14.1727 16.2259 11.4357 17.1054 8.72261C17.1361 8.62733 17.1667 8.53205 17.1982 8.43388C17.8485 6.44895 18.7576 4.40227 20.164 2.83199C20.5275 2.65026 20.9025 2.66494 21.2968 2.7187C21.58 2.88863 21.58 2.88863 21.75 3.17183C21.8747 3.69971 21.8369 3.9356 21.553 4.40067C21.422 4.58332 21.2908 4.7659 21.1574 4.94683C18.6888 8.32362 17.8616 13.0479 17.4453 17.1054C17.5364 17.1568 17.6275 17.2082 17.7214 17.2612C18.0117 17.4453 18.0117 17.4453 18.125 17.6718C18.1352 17.8604 18.1383 18.0494 18.1378 18.2383C18.1378 18.4152 18.1378 18.4152 18.1378 18.5956C18.1372 18.7233 18.1366 18.851 18.136 18.9825C18.1359 19.113 18.1357 19.2434 18.1355 19.3778C18.1349 19.7956 18.1335 20.2135 18.132 20.6313C18.1315 20.9141 18.131 21.1968 18.1305 21.4796C18.1292 22.1739 18.1273 22.8682 18.125 23.5625C18.2178 23.5572 18.3107 23.5519 18.4064 23.5465C18.5285 23.5424 18.6506 23.5383 18.7763 23.5341C18.8972 23.5289 19.0181 23.5236 19.1427 23.5182C19.5699 23.5735 19.6713 23.6842 19.9375 24.0156C19.9943 24.2863 19.9943 24.2863 19.9945 24.5937C19.9963 24.7699 19.9963 24.7699 19.9981 24.9496C19.9971 25.0784 19.996 25.2073 19.995 25.34C19.9957 25.477 19.9964 25.614 19.9971 25.7551C19.9986 26.1356 19.9981 26.5159 19.9967 26.8964C19.9957 27.3066 19.9973 27.7168 19.9985 28.1269C20.0005 28.9306 20.0001 29.7342 19.9988 30.5379C19.9977 31.1909 19.9976 31.8439 19.9981 32.4969C19.9982 32.5898 19.9982 32.6826 19.9983 32.7783C19.9985 32.967 19.9986 33.1556 19.9987 33.3443C20 35.1141 19.9986 36.8839 19.9961 38.6537C19.9941 40.173 19.9944 41.6922 19.9965 43.2114C19.999 44.9748 19.9999 46.7382 19.9985 48.5016C19.9984 48.6896 19.9982 48.8775 19.9981 49.0655C19.998 49.2042 19.998 49.2042 19.9979 49.3458C19.9975 49.9982 19.9982 50.6505 19.9992 51.3029C20.0005 52.0977 20.0002 52.8925 19.9977 53.6874C19.9965 54.0931 19.9961 54.4987 19.9976 54.9044C19.9992 55.3438 19.9973 55.7831 19.995 56.2224C19.996 56.3513 19.997 56.4801 19.9981 56.6128C19.9969 56.7303 19.9957 56.8477 19.9945 56.9687C19.9944 57.0701 19.9943 57.1716 19.9943 57.2761C19.9191 57.6345 19.7642 57.7717 19.4843 58C19.2459 58.057 19.2459 58.057 18.9856 58.0575C18.8865 58.0588 18.7874 58.06 18.6853 58.0614C18.5236 58.06 18.5236 58.06 18.3586 58.0586C18.1872 58.0598 18.1872 58.0598 18.0124 58.061C17.6345 58.063 17.2567 58.0617 16.8789 58.0601C16.6165 58.0604 16.3541 58.0609 16.0917 58.0614C15.5416 58.0621 14.9916 58.0611 14.4416 58.059C13.736 58.0564 13.0306 58.0579 12.3251 58.0606C11.7832 58.0623 11.2413 58.0618 10.6995 58.0606C10.4393 58.0603 10.1791 58.0607 9.91899 58.0617C9.55555 58.0629 9.19224 58.0611 8.82882 58.0586C8.721 58.0595 8.61318 58.0604 8.50209 58.0614C8.40299 58.0601 8.30389 58.0588 8.20179 58.0575C8.11592 58.0573 8.03005 58.0572 7.94157 58.057C7.60136 57.9756 7.47139 57.8134 7.24996 57.5468C7.19316 57.2761 7.19316 57.2761 7.19294 56.9687C7.19176 56.8512 7.19058 56.7338 7.18936 56.6128C7.19037 56.484 7.19138 56.3552 7.19242 56.2224C7.19136 56.0169 7.19136 56.0169 7.19028 55.8073C7.18878 55.4268 7.18933 55.0465 7.19073 54.666C7.19175 54.2558 7.19017 53.8457 7.18892 53.4355C7.18691 52.6318 7.18735 51.8282 7.18866 51.0246C7.18968 50.3715 7.18982 49.7185 7.18933 49.0655C7.18926 48.9726 7.18919 48.8798 7.18912 48.7841C7.18897 48.5954 7.18883 48.4068 7.18868 48.2181C7.18738 46.4483 7.18887 44.6785 7.1913 42.9087C7.19333 41.3895 7.19298 39.8702 7.19089 38.351C7.18846 36.5876 7.18751 34.8242 7.1889 33.0608C7.18904 32.8728 7.18919 32.6849 7.18933 32.4969C7.1894 32.4044 7.18947 32.3119 7.18954 32.2166C7.18993 31.5643 7.18927 30.9119 7.1882 30.2595C7.18693 29.4647 7.18727 28.6699 7.18969 27.875C7.19088 27.4693 7.19134 27.0637 7.18985 26.658C7.18825 26.2186 7.19016 25.7793 7.19242 25.34C7.19091 25.1467 7.19091 25.1467 7.18936 24.9496C7.19113 24.7734 7.19113 24.7734 7.19294 24.5937C7.19301 24.4923 7.19309 24.3909 7.19316 24.2863C7.26888 23.9254 7.41731 23.7884 7.70309 23.5625C8.0447 23.5182 8.0447 23.5182 8.4111 23.5341C8.53317 23.5382 8.65525 23.5423 8.78103 23.5465C8.8739 23.5518 8.96678 23.557 9.06246 23.5625C9.06146 23.4897 9.06045 23.4169 9.05941 23.3419C9.04939 22.5848 9.04256 21.8277 9.03757 21.0706C9.03529 20.788 9.0322 20.5054 9.02828 20.2228C9.02279 19.8167 9.02021 19.4107 9.01821 19.0047C9.01587 18.8781 9.01353 18.7516 9.01112 18.6213C9.01109 18.5034 9.01106 18.3855 9.01102 18.264C9.01002 18.1604 9.00901 18.0567 9.00797 17.95C9.07948 17.585 9.23332 17.4524 9.51559 17.2187C9.59035 17.1813 9.66512 17.1439 9.74215 17.1054C9.19136 12.7679 8.45235 7.78911 5.58437 4.29623C5.34143 3.93548 5.36286 3.5903 5.43746 3.17183C5.60738 2.88863 5.60738 2.88863 5.89059 2.7187C6.41067 2.64441 6.65366 2.6149 7.08004 2.92403C7.1783 3.04126 7.27207 3.16229 7.36324 3.28511C7.42999 3.37167 7.49673 3.45823 7.5655 3.54741C8.11024 4.27444 8.55342 5.0064 8.9421 5.82686C8.99973 5.94838 9.05735 6.0699 9.11672 6.19511C10.6162 9.45397 11.7812 13.5878 11.7812 17.2187C12.0429 17.2187 12.3046 17.2187 12.5742 17.2187C12.3397 12.0543 11.8181 6.68119 9.38986 2.02447C9.34885 1.9456 9.30783 1.86672 9.26557 1.78546C9.22807 1.71518 9.19057 1.64489 9.15193 1.57248C8.98571 1.17648 9.00577 0.878289 9.06246 0.453079C9.34402 -0.0161808 9.65116 -0.0532734 10.1842 -0.0712891ZM10.875 19.0312C10.875 20.5265 10.875 22.0218 10.875 23.5625C12.6693 23.5625 14.4637 23.5625 16.3125 23.5625C16.3125 22.0671 16.3125 20.5718 16.3125 19.0312C14.5181 19.0312 12.7237 19.0312 10.875 19.0312ZM9.06246 25.375C9.06246 26.3469 9.06246 27.3189 9.06246 28.3203C9.5121 28.1704 9.88353 28.037 10.2977 27.8288C10.4541 27.7506 10.4541 27.7506 10.6136 27.6708C10.7241 27.615 10.8346 27.5591 10.9484 27.5016C11.1205 27.4154 11.1205 27.4154 11.296 27.3274C11.6609 27.1443 12.0255 26.9605 12.3901 26.7768C12.638 26.6523 12.886 26.5278 13.1339 26.4033C13.7406 26.0988 14.3469 25.7937 14.9531 25.4882C14.9531 25.4509 14.9531 25.4135 14.9531 25.375C13.0092 25.375 11.0653 25.375 9.06246 25.375ZM17.0616 26.4602C16.9754 26.5033 16.8891 26.5464 16.8003 26.5908C16.5145 26.7338 16.2289 26.8774 15.9434 27.0211C15.7457 27.1202 15.5479 27.2192 15.3501 27.3182C14.8288 27.5793 14.3078 27.8409 13.7868 28.1026C13.2555 28.3695 12.7239 28.6358 12.1923 28.9022C11.1488 29.4251 10.1055 29.9487 9.06246 30.4726C9.06246 31.5567 9.06246 32.6408 9.06246 33.7578C9.60183 33.578 10.0853 33.3752 10.5888 33.1207C10.6707 33.0798 10.7526 33.0389 10.8369 32.9967C11.1056 32.8623 11.3739 32.7273 11.6423 32.5922C11.8292 32.4985 12.0162 32.4049 12.2032 32.3113C12.6939 32.0655 13.1844 31.8191 13.6748 31.5727C14.1758 31.321 14.6771 31.0698 15.1783 30.8186C16.1608 30.3262 17.1429 29.8331 18.125 29.3398C18.125 28.2557 18.125 27.1716 18.125 26.0546C17.7355 26.0546 17.4037 26.2874 17.0616 26.4602ZM17.0616 31.8977C16.9754 31.9408 16.8891 31.9839 16.8003 32.0283C16.5145 32.1713 16.2289 32.3149 15.9434 32.4586C15.7457 32.5577 15.5479 32.6567 15.3501 32.7557C14.8288 33.0168 14.3078 33.2784 13.7868 33.5401C13.2555 33.807 12.7239 34.0733 12.1923 34.3397C11.1488 34.8626 10.1055 35.3862 9.06246 35.9101C9.06246 36.9942 9.06246 38.0783 9.06246 39.1953C9.60183 39.0155 10.0853 38.8127 10.5888 38.5582C10.6707 38.5173 10.7526 38.4764 10.8369 38.4342C11.1056 38.2998 11.3739 38.1648 11.6423 38.0297C11.8292 37.936 12.0162 37.8424 12.2032 37.7488C12.6939 37.503 13.1844 37.2566 13.6748 37.0102C14.1758 36.7585 14.6771 36.5073 15.1783 36.2561C16.1608 35.7637 17.1429 35.2706 18.125 34.7773C18.125 33.6932 18.125 32.6091 18.125 31.4921C17.7355 31.4921 17.4037 31.7249 17.0616 31.8977ZM17.0616 37.3352C16.9754 37.3783 16.8891 37.4214 16.8003 37.4658C16.5145 37.6088 16.2289 37.7524 15.9434 37.8961C15.7457 37.9952 15.5479 38.0942 15.3501 38.1932C14.8288 38.4543 14.3078 38.7159 13.7868 38.9776C13.2555 39.2445 12.7239 39.5108 12.1923 39.7772C11.1488 40.3001 10.1055 40.8237 9.06246 41.3476C9.06246 42.4317 9.06246 43.5158 9.06246 44.6328C9.60183 44.453 10.0853 44.2502 10.5888 43.9957C10.6707 43.9548 10.7526 43.9139 10.8369 43.8717C11.1056 43.7373 11.3739 43.6023 11.6423 43.4672C11.8292 43.3735 12.0162 43.2799 12.2032 43.1863C12.6939 42.9405 13.1844 42.6941 13.6748 42.4477C14.1758 42.196 14.6771 41.9448 15.1783 41.6936C16.1608 41.2012 17.1429 40.7081 18.125 40.2148C18.125 39.1307 18.125 38.0466 18.125 36.9296C17.7355 36.9296 17.4037 37.1624 17.0616 37.3352ZM17.0616 42.7727C16.9754 42.8158 16.8891 42.8589 16.8003 42.9033C16.5145 43.0463 16.2289 43.1899 15.9434 43.3336C15.7457 43.4327 15.5479 43.5317 15.3501 43.6307C14.8288 43.8918 14.3078 44.1534 13.7868 44.4151C13.2555 44.682 12.7239 44.9483 12.1923 45.2147C11.1488 45.7376 10.1055 46.2612 9.06246 46.7851C9.06246 47.8692 9.06246 48.9533 9.06246 50.0703C9.60183 49.8905 10.0853 49.6877 10.5888 49.4332C10.6707 49.3923 10.7526 49.3514 10.8369 49.3092C11.1056 49.1748 11.3739 49.0398 11.6423 48.9047C11.8292 48.811 12.0162 48.7174 12.2032 48.6238C12.6939 48.378 13.1844 48.1316 13.6748 47.8852C14.1758 47.6335 14.6771 47.3823 15.1783 47.1311C16.1608 46.6387 17.1429 46.1456 18.125 45.6523C18.125 44.5682 18.125 43.4841 18.125 42.3671C17.7355 42.3671 17.4037 42.5999 17.0616 42.7727ZM17.0616 48.2102C16.9754 48.2533 16.8891 48.2964 16.8003 48.3408C16.5145 48.4838 16.2289 48.6274 15.9434 48.7711C15.7457 48.8702 15.5479 48.9692 15.3501 49.0682C14.8288 49.3293 14.3078 49.5909 13.7868 49.8526C13.2555 50.1195 12.7239 50.3858 12.1923 50.6522C11.1488 51.1751 10.1055 51.6987 9.06246 52.2226C9.06246 53.3067 9.06246 54.3908 9.06246 55.5078C9.60183 55.328 10.0853 55.1252 10.5888 54.8707C10.6707 54.8298 10.7526 54.7889 10.8369 54.7467C11.1056 54.6123 11.3739 54.4773 11.6423 54.3422C11.8292 54.2485 12.0162 54.1549 12.2032 54.0613C12.6939 53.8155 13.1844 53.5691 13.6748 53.3227C14.1758 53.071 14.6771 52.8198 15.1783 52.5686C16.1608 52.0762 17.1429 51.5831 18.125 51.0898C18.125 50.0057 18.125 48.9216 18.125 47.8046C17.7355 47.8046 17.4037 48.0374 17.0616 48.2102ZM17.3527 53.5021C17.1827 53.5872 17.1827 53.5872 17.0092 53.6739C16.8864 53.7359 16.7637 53.7978 16.6373 53.8616C16.4492 53.9559 16.4492 53.9559 16.2573 54.0521C15.9237 54.2194 15.5904 54.3871 15.2572 54.555C14.9172 54.7261 14.5769 54.8968 14.2367 55.0675C13.569 55.4026 12.9016 55.7382 12.2343 56.0742C12.2343 56.1116 12.2343 56.1489 12.2343 56.1875C14.1782 56.1875 16.1221 56.1875 18.125 56.1875C18.125 55.2155 18.125 54.2435 18.125 53.2421C17.8151 53.2421 17.63 53.3628 17.3527 53.5021Z" fill="#29AAE3"/>
<path d="M41.6875 3.56848C41.7622 3.56731 41.837 3.56615 41.914 3.56494C42.2711 3.65978 42.376 3.77384 42.5937 4.07825C42.6618 4.49686 42.6509 4.91274 42.6452 5.33596C42.6452 5.46419 42.6453 5.59243 42.6454 5.72455C42.6451 6.14874 42.6415 6.57284 42.638 6.99701C42.6371 7.29098 42.6365 7.58495 42.636 7.87891C42.6345 8.57379 42.6309 9.26863 42.6264 9.96349C42.6213 10.7547 42.6188 11.5458 42.6165 12.337C42.6118 13.9643 42.6037 15.5916 42.5937 17.2189C43.1919 17.2189 43.79 17.2189 44.4062 17.2189C44.4039 17.0153 44.4015 16.8118 44.399 16.6021C44.3917 15.9293 44.3865 15.2566 44.3828 14.5837C44.3804 14.1758 44.3772 13.768 44.3721 13.3601C44.3671 12.9664 44.3644 12.5728 44.3632 12.179C44.362 11.9559 44.3585 11.7328 44.3549 11.5096C44.3549 11.3736 44.3548 11.2375 44.3548 11.0974C44.3538 10.9776 44.3528 10.8579 44.3517 10.7345C44.4199 10.3438 44.5526 10.2118 44.8594 9.96887C45.0859 9.90869 45.0859 9.90869 45.3125 9.91223C45.3872 9.91106 45.462 9.9099 45.539 9.90869C45.8715 9.99701 46.0031 10.157 46.2187 10.422C46.2732 10.7345 46.2732 10.7345 46.2702 11.0974C46.2701 11.2334 46.2701 11.3695 46.2701 11.5096C46.2677 11.656 46.2654 11.8023 46.263 11.9531C46.2621 12.1048 46.2615 12.2565 46.261 12.4083C46.2593 12.8069 46.2549 13.2053 46.2498 13.6039C46.2452 14.0109 46.2431 14.4179 46.2409 14.8249C46.236 15.6229 46.228 16.4209 46.2187 17.2189C46.8169 17.2189 47.415 17.2189 48.0312 17.2189C48.0302 17.0553 48.0292 16.8916 48.0282 16.7231C48.019 15.1828 48.0122 13.6426 48.0078 12.1024C48.0054 11.3105 48.0022 10.5186 47.997 9.72671C47.9921 8.96283 47.9894 8.19897 47.9882 7.43507C47.9874 7.14329 47.9858 6.85151 47.9833 6.55975C47.98 6.15179 47.9796 5.74392 47.9798 5.33596C47.9782 5.21471 47.9765 5.09347 47.9749 4.96855C47.9794 4.15065 47.9794 4.15065 48.2469 3.77684C48.5024 3.61361 48.6365 3.56378 48.9375 3.56848C49.0122 3.56731 49.087 3.56615 49.164 3.56494C49.5211 3.65978 49.626 3.77384 49.8437 4.07825C49.9118 4.49686 49.9009 4.91274 49.8952 5.33596C49.8952 5.46419 49.8953 5.59243 49.8954 5.72455C49.8951 6.14874 49.8915 6.57284 49.888 6.99701C49.8871 7.29098 49.8865 7.58495 49.886 7.87891C49.8845 8.57379 49.8809 9.26863 49.8764 9.96349C49.8713 10.7547 49.8688 11.5458 49.8665 12.337C49.8618 13.9643 49.8538 15.5916 49.8437 17.2189C49.9512 17.2306 50.0587 17.2422 50.1694 17.2543C50.5234 17.3322 50.5234 17.3322 50.75 17.672C50.7772 17.9365 50.7772 17.9365 50.7757 18.2513C50.7757 18.3692 50.7757 18.4871 50.7757 18.6086C50.7745 18.7357 50.7733 18.8628 50.7721 18.9938C50.7718 19.124 50.7715 19.2543 50.7711 19.3885C50.7699 19.8052 50.767 20.2219 50.7641 20.6386C50.763 20.9208 50.762 21.203 50.761 21.4853C50.7585 22.1777 50.7548 22.8702 50.75 23.5626C50.8429 23.5574 50.9357 23.5521 51.0314 23.5467C51.1535 23.5426 51.2756 23.5385 51.4014 23.5343C51.5223 23.529 51.6432 23.5238 51.7677 23.5184C52.1949 23.5737 52.2964 23.6844 52.5625 24.0157C52.6193 24.2865 52.6193 24.2865 52.6195 24.5939C52.6213 24.77 52.6213 24.77 52.6231 24.9497C52.6221 25.0786 52.6211 25.2074 52.62 25.3402C52.6207 25.4772 52.6214 25.6142 52.6222 25.7553C52.6237 26.1357 52.6231 26.5161 52.6217 26.8965C52.6207 27.3067 52.6223 27.7169 52.6235 28.1271C52.6255 28.9308 52.6251 29.7344 52.6238 30.538C52.6228 31.191 52.6226 31.8441 52.6231 32.4971C52.6232 32.5899 52.6233 32.6828 52.6233 32.7785C52.6235 32.9671 52.6236 33.1558 52.6238 33.3444C52.6251 35.1143 52.6236 36.8841 52.6211 38.6539C52.6191 40.1731 52.6195 41.6924 52.6216 43.2116C52.624 44.975 52.6249 46.7384 52.6235 48.5018C52.6234 48.6897 52.6233 48.8777 52.6231 49.0657C52.623 49.2044 52.623 49.2044 52.6229 49.3459C52.6225 49.9983 52.6232 50.6507 52.6242 51.3031C52.6255 52.0979 52.6252 52.8927 52.6228 53.6875C52.6216 54.0932 52.6211 54.4989 52.6226 54.9046C52.6242 55.3439 52.6223 55.7832 52.62 56.2226C52.621 56.3514 52.622 56.4803 52.6231 56.613C52.6219 56.7304 52.6207 56.8479 52.6195 56.9688C52.6194 57.0703 52.6194 57.1717 52.6193 57.2762C52.544 57.6353 52.3907 57.7724 52.1094 58.0001C51.8426 58.0571 51.8426 58.0571 51.5418 58.0577C51.3703 58.0596 51.3703 58.0596 51.1953 58.0615C51.0706 58.0606 50.9458 58.0597 50.8172 58.0588C50.6853 58.0596 50.5534 58.0603 50.4175 58.0612C49.9808 58.0632 49.5441 58.0618 49.1074 58.0603C48.8044 58.0606 48.5013 58.0611 48.1983 58.0616C47.5629 58.0624 46.9276 58.0614 46.2922 58.0592C45.5578 58.0567 44.8235 58.0575 44.0892 58.06C43.4584 58.0621 42.8277 58.0624 42.197 58.0612C41.8204 58.0605 41.4438 58.0606 41.0672 58.0619C40.6473 58.063 40.2276 58.0613 39.8077 58.0588C39.683 58.0597 39.5582 58.0606 39.4296 58.0615C39.3153 58.0603 39.2009 58.059 39.0831 58.0577C38.9839 58.0575 38.8846 58.0573 38.7824 58.0571C38.42 57.9797 38.2962 57.8307 38.0625 57.547C38.0057 57.2762 38.0057 57.2762 38.0055 56.9688C38.0043 56.8514 38.0031 56.734 38.0019 56.613C38.0029 56.4842 38.0039 56.3553 38.0049 56.2226C38.0042 56.0856 38.0035 55.9486 38.0028 55.8074C38.0013 55.427 38.0018 55.0467 38.0032 54.6662C38.0043 54.256 38.0027 53.8458 38.0014 53.4356C37.9994 52.632 37.9999 51.8284 38.0012 51.0247C38.0022 50.3717 38.0023 49.7187 38.0018 49.0657C38.0018 48.9728 38.0017 48.8799 38.0016 48.7843C38.0015 48.5956 38.0013 48.407 38.0012 48.2183C37.9999 46.4485 38.0014 44.6787 38.0038 42.9089C38.0058 41.3896 38.0055 39.8704 38.0034 38.3511C38.001 36.5877 38 34.8244 38.0014 33.061C38.0016 32.873 38.0017 32.685 38.0018 32.4971C38.0019 32.4046 38.002 32.3121 38.0021 32.2168C38.0025 31.5644 38.0018 30.912 38.0007 30.2597C37.9995 29.4648 37.9998 28.67 38.0022 27.8752C38.0034 27.4695 38.0039 27.0639 38.0024 26.6582C38.0008 26.2188 38.0027 25.7795 38.0049 25.3402C38.0039 25.2113 38.0029 25.0825 38.0019 24.9497C38.0031 24.8323 38.0042 24.7149 38.0055 24.5939C38.0055 24.4925 38.0056 24.391 38.0057 24.2865C38.0814 23.9256 38.2298 23.7886 38.5156 23.5626C38.8572 23.5184 38.8572 23.5184 39.2236 23.5343C39.3457 23.5384 39.4678 23.5425 39.5936 23.5467C39.6864 23.552 39.7793 23.5572 39.875 23.5626C39.874 23.4898 39.873 23.417 39.8719 23.342C39.8619 22.585 39.8551 21.8279 39.8501 21.0708C39.8478 20.7881 39.8447 20.5055 39.8408 20.2229C39.8353 19.8169 39.8327 19.4109 39.8307 19.0048C39.8284 18.8783 39.8261 18.7518 39.8236 18.6215C39.8236 18.5036 39.8236 18.3857 39.8235 18.2642C39.8225 18.1605 39.8215 18.0569 39.8205 17.9501C39.8931 17.5794 40.0293 17.4439 40.3281 17.2189C40.4776 17.2189 40.6272 17.2189 40.7812 17.2189C40.7808 17.1516 40.7804 17.0843 40.78 17.0149C40.77 15.3774 40.7625 13.7399 40.7578 12.1024C40.7554 11.3105 40.7522 10.5186 40.7471 9.72671C40.7421 8.96283 40.7394 8.19897 40.7382 7.43507C40.7374 7.14329 40.7358 6.85151 40.7333 6.55975C40.73 6.15179 40.7296 5.74392 40.7298 5.33596C40.7282 5.21471 40.7265 5.09347 40.7249 4.96855C40.7294 4.15065 40.7294 4.15065 40.9969 3.77684C41.2524 3.61361 41.3865 3.56378 41.6875 3.56848ZM41.6875 19.0314C41.6875 20.5267 41.6875 22.022 41.6875 23.5626C44.08 23.5626 46.4725 23.5626 48.9375 23.5626C48.9375 22.0673 48.9375 20.572 48.9375 19.0314C46.545 19.0314 44.1525 19.0314 41.6875 19.0314ZM39.875 25.3751C39.875 35.5432 39.875 45.7114 39.875 56.1876C43.4637 56.1876 47.0525 56.1876 50.75 56.1876C50.75 46.0195 50.75 35.8514 50.75 25.3751C47.1612 25.3751 43.5725 25.3751 39.875 25.3751Z" fill="#29AAE3"/>
<path d="M29 -0.0565186C29.0747 -0.0576868 29.1495 -0.058855 29.2265 -0.0600586C29.5583 0.0280727 29.6905 0.189504 29.9062 0.453247C29.962 0.756685 29.962 0.756685 29.9607 1.10982C29.9613 1.24389 29.962 1.37795 29.9626 1.51608C29.961 1.66275 29.9594 1.80942 29.9577 1.96053C29.9575 2.11684 29.9576 2.27316 29.9579 2.42947C29.958 2.85356 29.9553 3.27759 29.9522 3.70166C29.9493 4.14494 29.9491 4.58822 29.9485 5.03151C29.9471 5.87081 29.9434 6.71008 29.9389 7.54937C29.9338 8.50492 29.9313 9.46047 29.929 10.416C29.9243 12.3816 29.9163 14.3471 29.9062 16.3126C29.9991 16.3074 30.092 16.3021 30.1877 16.2967C30.3097 16.2926 30.4318 16.2885 30.5576 16.2843C30.6785 16.279 30.7994 16.2738 30.924 16.2684C31.2656 16.3126 31.2656 16.3126 31.533 16.5214C31.7781 16.8439 31.7736 17.0385 31.7702 17.4411C31.7701 17.5772 31.7701 17.7132 31.7701 17.8534C31.7666 18.0729 31.7666 18.0729 31.763 18.2968C31.7621 18.4486 31.7615 18.6003 31.761 18.752C31.7593 19.1506 31.7549 19.5491 31.7498 19.9476C31.7452 20.3546 31.7431 20.7616 31.7409 21.1687C31.736 21.9667 31.7283 22.7646 31.7187 23.5626C31.8116 23.5574 31.9045 23.5521 32.0002 23.5467C32.1222 23.5426 32.2443 23.5385 32.3701 23.5343C32.491 23.529 32.6119 23.5238 32.7365 23.5184C33.1637 23.5737 33.2651 23.6844 33.5312 24.0157C33.588 24.2865 33.588 24.2865 33.5883 24.5939C33.59 24.77 33.59 24.77 33.5918 24.9497C33.5903 25.143 33.5903 25.143 33.5888 25.3402C33.5895 25.4772 33.5902 25.6142 33.5909 25.7553C33.5924 26.1357 33.5919 26.5161 33.5905 26.8965C33.5894 27.3067 33.591 27.7169 33.5923 28.1271C33.5943 28.9308 33.5938 29.7344 33.5925 30.538C33.5915 31.191 33.5914 31.8441 33.5919 32.4971C33.5919 32.5899 33.592 32.6828 33.5921 32.7785C33.5922 32.9671 33.5924 33.1558 33.5925 33.3444C33.5938 35.1143 33.5923 36.8841 33.5899 38.6539C33.5879 40.1731 33.5882 41.6924 33.5903 43.2116C33.5927 44.975 33.5937 46.7384 33.5923 48.5018C33.5922 48.6897 33.592 48.8777 33.5919 49.0657C33.5918 49.1582 33.5917 49.2506 33.5917 49.3459C33.5913 49.9983 33.5919 50.6507 33.593 51.3031C33.5943 52.0979 33.5939 52.8927 33.5915 53.6875C33.5903 54.0932 33.5898 54.4989 33.5913 54.9046C33.5929 55.3439 33.591 55.7832 33.5888 56.2226C33.5898 56.3514 33.5908 56.4803 33.5918 56.613C33.5907 56.7304 33.5895 56.8479 33.5883 56.9688C33.5882 57.0703 33.5881 57.1717 33.588 57.2762C33.5122 57.6376 33.3644 57.7739 33.0781 58.0001C32.717 58.0577 32.717 58.0577 32.2851 58.0588C32.2062 58.0595 32.1274 58.0603 32.0461 58.0612C31.7859 58.0632 31.5258 58.0618 31.2656 58.0603C31.0845 58.0606 30.9033 58.061 30.7222 58.0616C30.3428 58.0623 29.9635 58.0613 29.5841 58.0592C29.098 58.0566 28.612 58.0581 28.1259 58.0608C27.752 58.0625 27.378 58.0619 27.0041 58.0608C26.8249 58.0605 26.6456 58.0608 26.4664 58.0619C26.2158 58.063 25.9654 58.0613 25.7148 58.0588C25.5723 58.0584 25.4298 58.058 25.2829 58.0577C24.847 57.9882 24.7408 57.8866 24.4687 57.547C24.4119 57.2762 24.4119 57.2762 24.4117 56.9688C24.4105 56.8514 24.4093 56.734 24.4081 56.613C24.4091 56.4842 24.4102 56.3553 24.4112 56.2226C24.4105 56.0856 24.4098 55.9486 24.4091 55.8074C24.4076 55.427 24.4081 55.0467 24.4095 54.6662C24.4105 54.256 24.4089 53.8458 24.4077 53.4356C24.4057 52.632 24.4061 51.8284 24.4074 51.0247C24.4085 50.3717 24.4086 49.7187 24.4081 49.0657C24.408 48.9728 24.408 48.8799 24.4079 48.7842C24.4077 48.5956 24.4076 48.4069 24.4074 48.2183C24.4062 46.4485 24.4076 44.6787 24.4101 42.9089C24.4121 41.3896 24.4117 39.8704 24.4097 38.3511C24.4072 36.5877 24.4063 34.8244 24.4077 33.061C24.4078 32.873 24.408 32.685 24.4081 32.4971C24.4082 32.4046 24.4082 32.3121 24.4083 32.2168C24.4087 31.5644 24.408 30.912 24.407 30.2597C24.4057 29.4648 24.406 28.67 24.4085 27.8752C24.4097 27.4695 24.4101 27.0639 24.4086 26.6582C24.407 26.2188 24.4089 25.7795 24.4112 25.3402C24.4102 25.2113 24.4092 25.0825 24.4081 24.9497C24.4093 24.8323 24.4105 24.7149 24.4117 24.5939C24.4118 24.4925 24.4119 24.391 24.4119 24.2865C24.4877 23.9256 24.6361 23.7886 24.9219 23.5626C25.2635 23.5184 25.2635 23.5184 25.6299 23.5343C25.7519 23.5384 25.874 23.5425 25.9998 23.5467C26.0927 23.5519 26.1855 23.5572 26.2812 23.5626C26.2802 23.4785 26.2792 23.3943 26.2782 23.3076C26.2691 22.5143 26.2622 21.7209 26.2578 20.9275C26.2554 20.5196 26.2522 20.1117 26.247 19.7039C26.2421 19.3102 26.2394 18.9165 26.2382 18.5228C26.237 18.2996 26.2335 18.0765 26.2299 17.8534C26.2299 17.7173 26.2298 17.5813 26.2298 17.4411C26.2288 17.3214 26.2278 17.2016 26.2267 17.0783C26.297 16.6753 26.4141 16.5627 26.7344 16.3126C27.076 16.2684 27.076 16.2684 27.4424 16.2843C27.5644 16.2884 27.6865 16.2925 27.8123 16.2967C27.9052 16.3019 27.998 16.3072 28.0937 16.3126C28.0933 16.2313 28.0929 16.15 28.0925 16.0662C28.0825 14.0884 28.075 12.1105 28.0703 10.1327C28.0679 9.17621 28.0647 8.21975 28.0595 7.26329C28.055 6.42972 28.0521 5.59616 28.0511 4.76258C28.0505 4.32112 28.0491 3.87969 28.0458 3.43825C28.0428 3.02281 28.0418 2.60741 28.0425 2.19196C28.0423 1.96666 28.0399 1.74137 28.0374 1.51608C28.038 1.38202 28.0386 1.24795 28.0392 1.10982C28.0388 0.993286 28.0384 0.876751 28.038 0.756685C28.1346 0.230649 28.4642 -0.0648908 29 -0.0565186ZM28.0937 18.1251C28.0937 19.9195 28.0937 21.7139 28.0937 23.5626C28.6919 23.5626 29.29 23.5626 29.9062 23.5626C29.9062 21.7682 29.9062 19.9739 29.9062 18.1251C29.3081 18.1251 28.71 18.1251 28.0937 18.1251ZM26.2812 25.3751C26.2812 35.5432 26.2812 45.7114 26.2812 56.1876C28.0756 56.1876 29.87 56.1876 31.7187 56.1876C31.7187 46.0195 31.7187 35.8514 31.7187 25.3751C29.9244 25.3751 28.13 25.3751 26.2812 25.3751Z" fill="#29AAE3"/>
<path d="M29 31.6622C29.0748 31.6611 29.1496 31.6599 29.2266 31.6587C29.5565 31.7463 29.6902 31.9115 29.9063 32.172C29.9633 32.4529 29.9633 32.4529 29.9638 32.7739C29.9657 32.9569 29.9657 32.9569 29.9677 33.1435C29.9668 33.2768 29.9659 33.41 29.9649 33.5473C29.9657 33.6881 29.9665 33.8288 29.9673 33.9739C29.969 34.3596 29.9686 34.7452 29.9671 35.131C29.966 35.5348 29.9671 35.9385 29.9678 36.3423C29.9686 37.0203 29.9675 37.6983 29.9654 38.3764C29.9629 39.1601 29.9637 39.9439 29.9662 40.7276C29.9682 41.4007 29.9685 42.0737 29.9673 42.7468C29.9666 43.1488 29.9665 43.5507 29.968 43.9526C29.9696 44.4006 29.9674 44.8486 29.9649 45.2967C29.9658 45.4299 29.9667 45.5632 29.9677 45.7005C29.9664 45.8224 29.9651 45.9444 29.9638 46.0701C29.9636 46.176 29.9635 46.2819 29.9633 46.3911C29.8891 46.7568 29.7388 46.893 29.4532 47.1251C29.2266 47.1853 29.2266 47.1853 29 47.1818C28.9253 47.1829 28.8505 47.1841 28.7735 47.1853C28.4436 47.0977 28.3098 46.9325 28.0938 46.672C28.0368 46.3911 28.0368 46.3911 28.0362 46.0701C28.035 45.9481 28.0337 45.8261 28.0324 45.7005C28.0333 45.5672 28.0342 45.434 28.0351 45.2967C28.0344 45.1559 28.0336 45.0152 28.0327 44.8701C28.0311 44.4844 28.0315 44.0987 28.0329 43.713C28.0341 43.3092 28.033 42.9055 28.0323 42.5017C28.0315 41.8237 28.0325 41.1457 28.0347 40.4676C28.0372 39.6839 28.0364 38.9001 28.0339 38.1164C28.0318 37.4433 28.0315 36.7702 28.0327 36.0972C28.0334 35.6952 28.0335 35.2933 28.032 34.8914C28.0305 34.4433 28.0326 33.9954 28.0351 33.5473C28.0342 33.4141 28.0333 33.2808 28.0324 33.1435C28.0336 33.0216 28.0349 32.8996 28.0362 32.7739C28.0364 32.668 28.0366 32.5621 28.0368 32.4529C28.1408 31.9403 28.4797 31.6541 29 31.6622Z" fill="#29AAE3"/>
<path d="M42.5938 27.131C42.6685 27.1298 42.7433 27.1286 42.8203 27.1274C43.1502 27.2151 43.284 27.3803 43.5 27.6407C43.557 27.9217 43.557 27.9217 43.5576 28.2427C43.5595 28.4256 43.5595 28.4256 43.5614 28.6123C43.5605 28.7455 43.5596 28.8788 43.5587 29.0161C43.5595 29.1568 43.5602 29.2976 43.5611 29.4426C43.5627 29.8284 43.5623 30.214 43.5609 30.5997C43.5597 31.0035 43.5608 31.4073 43.5615 31.811C43.5623 32.4891 43.5613 33.1671 43.5591 33.8451C43.5566 34.6289 43.5574 35.4126 43.5599 36.1964C43.562 36.8694 43.5623 37.5425 43.5611 38.2156C43.5604 38.6175 43.5603 39.0194 43.5618 39.4213C43.5633 39.8694 43.5612 40.3174 43.5587 40.7654C43.5596 40.8987 43.5605 41.0319 43.5614 41.1692C43.5602 41.2912 43.5589 41.4132 43.5576 41.5388C43.5574 41.6448 43.5572 41.7507 43.557 41.8598C43.4828 42.2256 43.3326 42.3617 43.0469 42.5939C42.8203 42.6541 42.8203 42.6541 42.5938 42.6505C42.519 42.6517 42.4442 42.6528 42.3672 42.6541C42.0373 42.5664 41.9036 42.4012 41.6875 42.1407C41.6305 41.8598 41.6305 41.8598 41.63 41.5388C41.6287 41.4169 41.6274 41.2949 41.6261 41.1692C41.627 41.036 41.628 40.9027 41.6289 40.7654C41.6281 40.6247 41.6273 40.4839 41.6265 40.3389C41.6248 39.9531 41.6252 39.5675 41.6267 39.1818C41.6278 38.778 41.6267 38.3742 41.626 37.9705C41.6252 37.2924 41.6263 36.6144 41.6285 35.9364C41.6309 35.1526 41.6301 34.3689 41.6276 33.5851C41.6256 32.912 41.6253 32.239 41.6265 31.5659C41.6272 31.164 41.6273 30.7621 41.6258 30.3601C41.6242 29.9121 41.6264 29.4641 41.6289 29.0161C41.628 28.8828 41.6271 28.7496 41.6261 28.6123C41.6274 28.4903 41.6287 28.3683 41.63 28.2427C41.6302 28.1367 41.6303 28.0308 41.6305 27.9217C41.7346 27.409 42.0734 27.1229 42.5938 27.131Z" fill="#29AAE3"/>
<path d="M45.3124 3.56848C45.3872 3.56731 45.462 3.56615 45.539 3.56494C45.8768 3.65466 46.003 3.80473 46.2187 4.07825C46.2773 4.45526 46.2773 4.45526 46.2789 4.89954C46.2793 4.97828 46.2797 5.05703 46.2802 5.13816C46.2805 5.30421 46.2797 5.47027 46.2778 5.63631C46.2753 5.88999 46.2777 6.1433 46.2806 6.39697C46.2803 6.55864 46.2798 6.7203 46.2789 6.88196C46.2784 7.02857 46.2778 7.17518 46.2773 7.32623C46.2097 7.76093 46.1119 7.89477 45.7656 8.15637C45.539 8.21655 45.539 8.21655 45.3124 8.21301C45.2003 8.21477 45.2003 8.21477 45.0859 8.21655C44.7481 8.12684 44.6219 7.97676 44.4062 7.70325C44.3476 7.32623 44.3476 7.32623 44.346 6.88196C44.3456 6.80321 44.3451 6.72447 44.3447 6.64334C44.3444 6.47729 44.3452 6.31123 44.3471 6.14519C44.3495 5.89151 44.3471 5.63819 44.3442 5.38452C44.3445 5.22286 44.3451 5.0612 44.346 4.89954C44.3465 4.75293 44.347 4.60631 44.3476 4.45526C44.4354 3.89018 44.7236 3.55928 45.3124 3.56848Z" fill="#29AAE3"/>
<path d="M43.0468 44.4062C43.33 44.5761 43.33 44.5761 43.5 44.8593C43.5896 45.3148 43.5704 45.6482 43.33 46.0488C42.9295 46.2891 42.5961 46.3083 42.1406 46.2187C41.8574 46.0488 41.8574 46.0488 41.6875 45.7656C41.5979 45.3101 41.6171 44.9767 41.8574 44.5761C42.2579 44.3358 42.5913 44.3166 43.0468 44.4062Z" fill="#29AAE3"/>
<path d="M29.4531 28.0937C29.7363 28.2636 29.7363 28.2636 29.9062 28.5468C29.9958 29.0023 29.9766 29.3357 29.7363 29.7363C29.3357 29.9766 29.0023 29.9958 28.5468 29.9062C28.2636 29.7363 28.2636 29.7363 28.0937 29.4531C28.0041 28.9976 28.0233 28.6642 28.2636 28.2636C28.6642 28.0233 28.9976 28.0041 29.4531 28.0937Z" fill="#29AAE3"/>
<path d="M49.3906 -3.06729e-05C49.6738 0.169891 49.6738 0.169891 49.8437 0.453094C49.9333 0.908596 49.9141 1.242 49.6738 1.64255C49.2732 1.88288 48.9398 1.90208 48.4843 1.81247C48.2011 1.64255 48.2011 1.64255 48.0312 1.35934C47.9416 0.903842 47.9608 0.570441 48.2011 0.169891C48.6017 -0.0704388 48.9351 -0.0896376 49.3906 -3.06729e-05Z" fill="#29AAE3"/>
<path d="M45.7656 -3.06729e-05C46.0488 0.169891 46.0488 0.169891 46.2187 0.453094C46.3083 0.908596 46.2891 1.242 46.0488 1.64255C45.6482 1.88288 45.3148 1.90208 44.8593 1.81247C44.5761 1.64255 44.5761 1.64255 44.4062 1.35934C44.3166 0.903842 44.3358 0.570441 44.5761 0.169891C44.9767 -0.0704388 45.3101 -0.0896376 45.7656 -3.06729e-05Z" fill="#29AAE3"/>
<path d="M42.1406 -3.06729e-05C42.4238 0.169891 42.4238 0.169891 42.5937 0.453094C42.6833 0.908596 42.6641 1.242 42.4238 1.64255C42.0232 1.88288 41.6898 1.90208 41.2343 1.81247C40.9511 1.64255 40.9511 1.64255 40.7812 1.35934C40.6916 0.903842 40.7108 0.570441 40.9511 0.169891C41.3517 -0.0704388 41.6851 -0.0896376 42.1406 -3.06729e-05Z" fill="#29AAE3"/>
</g>
<defs>
<clipPath id="clip0_237_414">
<rect width="58" height="58" fill="white"/>
</clipPath>
</defs>
</svg>
